<svg width="1361" height="457" viewBox="0 0 1361 457" fill="none" xmlns="http://www.w3.org/2000/svg">
<g opacity="0.3">
<path d="M513.701 456.946C508.805 456.946 504.039 456.573 499.459 455.828C489.854 454.265 480.979 451.056 473.083 446.29C464.595 441.168 457.151 434.189 450.955 425.548C438.502 408.18 432.272 387.38 426.247 367.264C425.063 363.314 423.84 359.229 422.597 355.266C414.119 328.256 403.371 304.597 389.742 282.936C362.555 239.727 324.321 202.851 279.172 176.295C226.957 145.585 170.817 130.287 121.093 133.22C91.8676 134.945 53.2529 151.346 35.995 179.357C25.7532 195.98 24.9273 214.429 33.6084 232.704L33.436 232.781C28.8843 223.197 26.9011 213.588 27.5432 204.222C28.1323 195.631 30.9205 187.233 35.8321 179.261C43.6437 166.582 56.526 155.344 73.0868 146.762C88.3899 138.832 105.434 133.957 121.082 133.034C147.104 131.5 174.78 134.904 203.34 143.154C229.23 150.633 254.777 161.729 279.27 176.135C324.446 202.705 362.703 239.602 389.905 282.837C403.542 304.512 414.295 328.184 422.779 355.209C424.023 359.172 425.247 363.258 426.429 367.208C432.449 387.31 438.675 408.095 451.11 425.438C463.136 442.213 479.415 452.375 499.491 455.64C527.294 460.164 561.056 450.703 589.802 430.329C631.228 400.971 659.977 358.238 687.782 316.914C692.656 309.67 697.694 302.18 702.684 294.948C715.636 276.167 733.178 251.83 754.025 230.15C775.335 207.989 796.989 191.707 820.227 180.372C834.45 173.433 849.524 168.759 865.03 166.479C879.352 164.371 894.511 164.241 910.087 166.087C936.804 169.255 965.588 178.205 998.085 193.446C1062.07 223.459 1125.99 259.889 1188.06 301.724C1247.06 341.487 1304.92 386.482 1360.04 435.455L1359.91 435.591C1245.65 334.073 1123.89 252.66 998.001 193.612C926.879 160.252 870.417 156.096 820.312 180.535C769.338 205.398 733.729 250.266 702.841 295.049C697.853 302.28 692.815 309.769 687.941 317.013C660.129 358.352 631.37 401.098 589.916 430.477C576.52 439.971 561.45 447.376 546.336 451.891C538.352 454.276 530.416 455.835 522.744 456.527C519.687 456.808 516.67 456.946 513.701 456.946Z" fill="#0B2326"/>
<path d="M518.489 446.646C506.002 446.646 494.436 444.338 484.1 439.783C472.574 434.704 462.627 426.833 454.535 416.392C453.819 415.467 453.109 414.511 452.423 413.547C440.104 396.254 433.597 375.724 427.307 355.869C426.034 351.857 424.719 347.706 423.386 343.679C415.443 319.699 405.88 298.565 394.145 279.07C392.7 276.67 391.204 274.265 389.694 271.922C362.107 229.084 323.562 192.675 278.227 166.631C225.635 136.445 169.337 121.779 119.701 125.338C90.6883 127.44 52.2517 144.109 34.9199 171.905C24.5417 188.549 23.3673 207.034 31.5199 225.362L31.3456 225.436C27.0723 215.829 25.3164 206.203 26.1291 196.826C26.8754 188.214 29.7772 179.797 34.757 171.809C42.6482 159.152 55.4926 147.901 71.8981 139.275C87.061 131.301 104.031 126.287 119.684 125.154C145.674 123.291 173.381 126.369 202.032 134.302C227.984 141.489 253.652 152.313 278.322 166.473C323.684 192.532 362.249 228.963 389.853 271.825C391.363 274.169 392.861 276.577 394.306 278.978C406.048 298.486 415.618 319.631 423.564 343.624C424.899 347.651 426.214 351.802 427.487 355.816C433.775 375.658 440.276 396.173 452.579 413.442C453.263 414.402 453.973 415.359 454.687 416.282C471.409 437.865 494.385 446.646 518.547 446.646C518.68 446.646 518.811 446.646 518.943 446.646C518.792 446.644 518.64 446.646 518.489 446.646ZM523.643 446.517C546.106 445.397 569.285 437.017 589.17 424.551C632.064 397.55 662.891 355.847 692.706 315.518C693.933 313.855 695.161 312.197 696.388 310.538C699.083 306.897 702.279 302.586 705.541 298.241C720.173 278.754 737.882 256.08 758.277 235.671C779.976 213.956 801.655 197.841 824.55 186.405C838.618 179.386 853.486 174.441 868.739 171.708C882.872 169.176 897.807 168.46 913.126 169.58C939.589 171.517 968.044 178.858 1000.12 192.025C1031.38 204.842 1057.09 216.907 1081.01 229.995C1114.89 248.553 1147.16 269.936 1174.27 288.405C1237.28 331.465 1299.11 380.36 1358.03 433.733L1357.9 433.867C1298.98 380.502 1237.16 331.61 1174.16 288.555C1147.06 270.089 1114.79 248.709 1080.92 230.157C1057 217.073 1031.31 205.011 1000.04 192.197C930.177 163.514 874.439 161.724 824.637 186.57C772.949 212.385 736.139 257.805 705.694 298.351C702.43 302.697 699.237 307.005 696.541 310.648C695.314 312.305 694.087 313.966 692.859 315.628C663.035 355.97 632.196 397.688 589.272 424.709C578.629 431.381 567.303 436.681 555.609 440.46C544.723 443.974 533.992 446.006 523.643 446.517Z" fill="#0B2326"/>
<path d="M523.767 436.582C522.265 436.582 520.773 436.55 519.291 436.486C506.816 435.951 495.271 433.172 484.978 428.224C473.721 422.812 463.968 414.796 455.992 404.397C455.283 403.47 454.577 402.512 453.895 401.548C441.713 384.34 434.936 364.084 428.384 344.497C427.018 340.415 425.605 336.193 424.173 332.096C415.839 308.197 406.023 287.231 394.162 268C392.694 265.622 391.175 263.237 389.642 260.913C361.656 218.448 322.801 182.506 277.28 156.973C224.313 127.311 167.855 113.276 118.307 117.46C90.4096 119.852 52.0847 135.572 33.8627 164.428C23.3348 181.1 21.8024 199.634 29.4303 218.027L29.2541 218.095C25.2574 208.459 23.7326 198.81 24.7176 189.417C25.623 180.778 28.6461 172.339 33.7017 164.332C41.6762 151.704 54.4789 140.45 70.7272 131.783C85.748 123.771 102.64 118.62 118.29 117.278C144.25 115.088 171.986 117.839 200.727 125.456C226.743 132.352 252.53 142.901 277.375 156.815C322.922 182.365 361.798 218.327 389.802 260.815C391.334 263.142 392.855 265.527 394.323 267.908C406.19 287.151 416.011 308.129 424.35 332.041C425.782 336.14 427.195 340.362 428.56 344.444C435.11 364.02 441.882 384.261 454.048 401.449C454.73 402.413 455.433 403.369 456.141 404.292C488.553 446.547 545.992 442.01 588.537 418.772C633.221 394.15 666.427 353.229 698.541 313.655L698.871 313.249C701.981 309.413 705.198 305.448 708.399 301.533C742.178 260.231 779.305 217.784 828.876 192.435C842.793 185.333 857.455 180.118 872.454 176.935C886.404 173.974 901.112 172.674 916.169 173.071C942.421 173.762 970.545 179.496 1002.15 190.6C1035.37 202.227 1060.36 212.915 1083.2 225.256C1115.74 242.875 1147.25 265.139 1175.06 284.782C1236.97 328.753 1297.86 378.286 1356.02 432.003L1355.89 432.135C1297.73 378.424 1236.85 328.896 1174.95 284.929C1147.15 265.289 1115.63 243.029 1083.11 225.416C1060.28 213.079 1035.29 202.394 1002.09 190.771C933.577 166.703 878.566 167.282 828.963 192.595C779.425 217.928 742.312 260.356 708.546 301.643C705.345 305.558 702.129 309.525 699.019 313.359L698.689 313.765C682.685 333.486 666.138 353.878 648.268 372.092C628.186 392.562 608.678 407.882 588.628 418.928C567.652 430.385 544.802 436.582 523.767 436.582Z" fill="#0B2326"/>
<path d="M1353.89 430.401C1296.48 376.344 1236.54 326.179 1175.74 281.302C1173.16 279.416 1170.58 277.52 1167.99 275.618C1141.66 256.269 1114.43 236.261 1085.3 220.675C1057.05 205.595 1028.42 196.375 1004.14 189.345C937.107 169.819 882.822 172.767 833.295 198.619C782.453 225.235 743.058 269.426 711.404 304.936C709.505 307.067 707.609 309.203 705.709 311.339C704.307 312.917 702.903 314.495 701.5 316.071C683.477 336.31 667.083 354.405 648.969 370.917C628.275 389.779 608.329 403.593 587.987 413.15C568.924 422.107 548.56 426.846 529.618 426.848C526.167 426.848 522.767 426.692 519.426 426.373C507.227 425.213 495.934 421.953 485.861 416.682C474.869 410.932 465.309 402.763 457.442 392.403C456.74 391.474 456.039 390.514 455.361 389.549C443.323 372.43 436.283 352.46 429.475 333.147C428.009 328.988 426.492 324.684 424.957 320.508C416.225 296.685 406.156 275.887 394.177 256.924C392.686 254.564 391.142 252.201 389.589 249.897C361.201 207.806 322.037 172.331 276.332 147.307C222.99 118.169 166.375 104.769 116.915 109.572C83.1016 112.921 48.5253 132.388 32.8301 156.91C22.1375 173.617 20.2414 192.21 27.3426 210.68L27.1646 210.744C23.4463 201.074 22.1507 191.395 23.3137 181.978C24.3839 173.308 27.5321 164.841 32.6691 156.812C40.7269 144.221 53.488 132.967 69.5734 124.269C84.4502 116.224 101.255 110.939 116.896 109.39C142.825 106.871 170.59 109.296 199.419 116.597C225.498 123.202 251.409 133.48 276.427 147.145C322.16 172.184 361.345 207.679 389.75 249.796C391.305 252.102 392.849 254.467 394.34 256.826C406.326 275.8 416.399 296.61 425.137 320.444C426.671 324.622 428.189 328.923 429.655 333.085C436.459 352.386 443.496 372.344 455.518 389.442C456.196 390.406 456.895 391.364 457.596 392.291C491.432 436.855 548.941 431.289 587.906 412.982C634.395 391.14 669.969 351.194 701.358 315.95C702.761 314.372 704.163 312.794 705.567 311.218C707.465 309.081 709.363 306.946 711.262 304.815C729.331 284.546 747.174 264.849 766.79 246.699C789.348 225.826 811.074 210.046 833.208 198.457C846.978 191.268 861.433 185.783 876.171 182.155C889.946 178.762 904.429 176.879 919.219 176.555C945.301 175.985 973.098 180.112 1004.19 189.168C1028.48 196.202 1057.13 205.426 1085.4 220.515C1114.53 236.107 1141.77 256.12 1168.11 275.473C1170.7 277.374 1173.28 279.27 1175.86 281.157C1236.66 326.038 1296.61 376.207 1354.02 430.27L1353.89 430.401Z" fill="#0B2326"/>
<path d="M1351.88 428.668C1294.15 373.232 1235.15 322.43 1176.53 277.676C1173.02 274.998 1169.43 272.238 1165.96 269.57C1141.11 250.459 1115.41 230.698 1087.5 215.934C1059.63 201.242 1030.75 193.526 1006.18 187.918C940.786 172.844 887.224 178.158 837.625 204.643C790.316 229.996 753.253 268.121 717.409 304.989L713.473 309.037C710.365 312.235 707.15 315.539 703.981 318.781C668.102 355.438 632.184 389.795 587.347 407.368C576.467 411.632 565.295 414.587 554.139 416.156C542.158 417.839 530.52 417.863 519.547 416.226C507.629 414.448 496.592 410.713 486.742 405.124C476.023 399.043 466.654 390.726 458.899 380.405C458.2 379.471 457.505 378.51 456.833 377.546C444.943 360.528 437.648 340.852 430.595 321.823C429.02 317.577 427.392 313.185 425.747 308.921C416.61 285.171 406.29 264.54 394.198 245.849C392.686 243.514 391.12 241.169 389.542 238.883C360.754 197.166 321.281 162.158 275.389 137.643C221.67 109.033 164.896 96.2636 115.521 101.69C82.0164 105.451 47.5973 125.054 31.8226 149.363C20.9519 166.112 18.6808 184.777 25.2536 203.341L25.0736 203.401C21.6338 193.688 20.5711 183.973 21.9141 174.528C23.1529 165.821 26.4317 157.321 31.6597 149.267C39.8046 136.718 52.5203 125.475 68.4352 116.751C83.1643 108.676 99.8785 103.264 115.498 101.51C141.397 98.6634 169.19 100.762 198.111 107.746C224.254 114.061 250.284 124.064 275.478 137.483C321.397 162.011 360.893 197.04 389.697 238.782C391.275 241.07 392.844 243.416 394.355 245.752C406.455 264.452 416.78 285.094 425.922 308.856C427.566 313.121 429.195 317.514 430.769 321.76C437.819 340.778 445.11 360.446 456.986 377.443C457.657 378.403 458.352 379.363 459.049 380.297C492.07 424.242 546.937 423.008 587.273 407.199C632.075 389.641 667.977 355.297 703.841 318.656C707.01 315.414 710.225 312.11 713.333 308.912L717.269 304.864C734.864 286.767 753.056 268.053 772.814 250.643C795.192 230.926 816.361 215.827 837.53 204.481C851.161 197.202 865.411 191.446 879.882 187.375C893.488 183.546 907.746 181.079 922.259 180.04C948.228 178.18 975.692 180.7 1006.23 187.737C1030.81 193.35 1059.69 201.068 1087.59 215.772C1115.51 230.542 1141.22 250.309 1166.08 269.424C1169.55 272.093 1173.14 274.851 1176.65 277.53C1235.27 322.288 1294.27 373.094 1352.01 428.536L1351.88 428.668Z" fill="#0B2326"/>
<path d="M1349.87 426.938C1292.63 370.886 1234.58 319.447 1177.32 274.053C1173.02 270.642 1168.6 267.095 1164.34 263.665C1140.83 244.761 1116.51 225.213 1089.69 211.199C1061.95 196.759 1032.95 190.608 1008.23 186.496C944.647 175.755 891.81 183.438 841.954 210.673C798.444 234.54 762.722 268.365 728.174 301.076C724.539 304.519 720.779 308.077 717.116 311.525C712.814 315.574 709.528 318.651 706.461 321.498C690.037 336.735 670.481 354.28 649.96 368.874C628.213 384.337 607.523 395.04 586.706 401.594C575.759 405.04 564.635 407.214 553.639 408.052C541.832 408.953 530.401 408.291 519.665 406.083C508.033 403.69 497.253 399.481 487.621 393.572C477.176 387.166 468.003 378.699 460.354 368.412C459.665 367.48 458.973 366.516 458.303 365.549C446.57 348.646 439.031 329.272 431.739 310.537C430.047 306.192 428.299 301.7 426.536 297.336C416.987 273.652 406.416 253.191 394.215 234.777C392.681 232.462 391.092 230.14 389.491 227.872C360.304 186.528 320.52 151.987 274.442 127.982C220.35 99.8975 163.417 87.7625 114.129 93.8089C86.0834 97.3249 49.4538 113.522 30.8416 141.779C19.7758 158.58 17.1202 177.329 23.1645 196L22.9845 196.055C19.8231 186.292 18.9973 176.535 20.5278 167.053C21.9408 158.302 25.356 149.766 30.6825 141.68C38.9146 129.182 51.5828 117.958 67.3216 109.215C81.903 101.117 98.5168 95.5816 114.106 93.6268C139.975 90.4528 167.798 92.2237 196.806 98.8916C223.012 104.916 249.163 114.648 274.532 127.82C320.636 151.838 360.442 186.399 389.646 227.767C391.247 230.035 392.838 232.361 394.372 234.678C406.579 253.1 417.156 273.573 426.71 297.268C428.475 301.633 430.224 306.126 431.915 310.471C439.202 329.197 446.739 348.559 458.458 365.444C459.129 366.41 459.818 367.371 460.508 368.302C487.979 405.253 535.135 417.633 586.647 401.415C633.297 386.73 671.351 353.815 706.331 321.361C709.397 318.515 712.682 315.438 716.983 311.389C720.647 307.941 724.407 304.383 728.042 300.94C745.049 284.837 762.635 268.185 781.393 252.593C802.604 234.959 822.385 221.193 841.863 210.509C855.363 203.135 869.404 197.109 883.601 192.6C897.048 188.328 911.08 185.277 925.307 183.528C951.212 180.347 978.348 181.257 1008.26 186.311C1032.99 190.426 1062.02 196.579 1089.78 211.031C1116.62 225.055 1140.94 244.608 1164.46 263.518C1168.72 266.948 1173.14 270.495 1177.44 273.906C1234.7 319.305 1292.76 370.748 1350 426.804L1349.87 426.938Z" fill="#0B2326"/>
<path d="M1347.86 425.206C1291.12 368.534 1234.01 316.457 1178.11 270.427C1173.35 266.512 1168.47 262.402 1163.74 258.428C1141.24 239.498 1117.97 219.924 1091.89 206.458C1064.12 192.192 1035.05 187.64 1010.28 185.069C949.576 178.602 895.931 188.948 846.281 216.697C806.747 238.893 772.859 268.586 740.086 297.303C733.466 303.103 726.622 309.101 719.968 314.819C715.897 318.318 712.291 321.391 708.938 324.212C693.347 337.316 672.608 354.118 650.446 367.849C628.178 381.645 607.116 390.794 586.059 395.816C563.092 401.294 540.17 401.334 519.774 395.935C508.433 392.932 497.909 388.25 488.493 382.018C478.327 375.29 469.349 366.676 461.804 356.421C461.121 355.486 460.435 354.521 459.768 353.554C448.202 336.779 440.429 317.724 432.912 299.298C431.094 294.84 429.215 290.232 427.319 285.754C417.352 262.133 406.528 241.837 394.23 223.709C392.673 221.414 391.061 219.112 389.437 216.864C359.85 175.893 319.758 141.818 273.495 118.326C219.029 90.7692 161.937 79.2667 112.734 85.9328C79.3886 90.5485 46.0946 109.931 29.888 134.161C18.6101 151.022 15.5623 169.869 21.0744 188.664L20.8926 188.714C18.0115 178.892 17.4243 169.084 19.1461 159.562C20.7372 150.761 24.2983 142.18 29.7289 134.059C38.0481 121.621 50.6671 110.422 66.2221 101.672C80.6501 93.557 97.1598 87.9005 112.707 85.7489C138.546 82.2476 166.4 83.693 195.496 90.0428C221.766 95.7766 248.039 105.236 273.582 118.16C319.872 141.667 359.987 175.761 389.593 216.758C391.216 219.005 392.828 221.309 394.387 223.606C406.691 241.745 417.52 262.05 427.493 285.683C429.389 290.16 431.268 294.771 433.087 299.228C440.599 317.645 448.369 336.691 459.923 353.449C460.59 354.416 461.274 355.378 461.958 356.312C488.957 393.024 535.333 407.725 586.013 395.637C632.216 384.617 672.339 354.729 708.813 324.074C712.164 321.253 715.772 318.182 719.841 314.682C726.493 308.965 733.339 302.968 739.957 297.168C772.738 268.446 806.632 238.746 846.184 216.541C859.565 209.062 873.402 202.767 887.311 197.828C900.614 193.105 914.42 189.47 928.346 187.022C954.245 182.471 981.052 181.774 1010.3 184.889C1035.09 187.462 1064.18 192.015 1091.97 206.298C1118.08 219.774 1141.36 239.354 1163.87 258.292C1168.59 262.266 1173.47 266.374 1178.23 270.289C1234.13 316.323 1291.25 368.403 1348 425.079L1347.86 425.206Z" fill="#0B2326"/>
<path d="M1345.85 423.472C1289.62 366.175 1233.45 313.464 1178.9 266.801C1173.89 262.513 1168.73 257.972 1163.74 253.581C1142.06 234.491 1119.64 214.75 1094.08 201.718C1066.2 187.573 1037.11 184.643 1012.33 183.643C953.916 181.112 901.017 193.895 850.609 222.722C815.258 243.035 783.745 268.743 753.268 293.603C742.789 302.152 732.89 310.227 722.823 318.111C718.727 321.32 714.998 324.203 711.418 326.923C688.318 344.457 669.1 357.135 650.935 366.818C628.146 378.968 606.715 386.563 585.417 390.035C577.154 391.381 568.922 392.052 560.84 392.052C546.512 392.052 532.649 389.948 519.886 385.781C496.788 378.24 477.737 364.325 463.259 344.422C462.577 343.479 461.897 342.513 461.238 341.55C449.849 324.92 441.857 306.204 434.129 288.101C432.17 283.515 430.147 278.774 428.107 274.164C417.714 250.598 406.637 230.471 394.249 212.632C392.669 210.357 391.034 208.075 389.388 205.848C359.402 165.25 318.999 131.642 272.55 108.659C217.711 81.632 160.462 70.7602 111.344 78.0461C77.8602 83.116 45.5266 102.13 28.9734 126.489C17.4662 143.42 14.015 162.379 18.9891 181.318L18.8054 181.364C16.2085 171.475 15.8638 161.607 17.7826 152.035C19.5593 143.175 23.27 134.547 28.8162 126.388C37.2225 114.017 49.7866 102.855 65.1522 94.1054C79.4248 85.9774 95.8189 80.2105 111.315 77.864C137.123 74.0354 165.008 75.1534 194.191 81.187C220.526 86.632 246.918 95.8193 272.637 108.493C319.112 131.491 359.538 165.117 389.544 205.739C391.19 207.968 392.824 210.25 394.406 212.527C406.801 230.375 417.884 250.514 428.281 274.089C430.321 278.699 432.346 283.441 434.303 288.028C442.028 306.121 450.015 324.83 461.396 341.445C462.055 342.407 462.733 343.372 463.415 344.314C490.448 381.482 534.905 398.08 585.385 389.851C633.438 382.017 676 353.571 711.3 326.776C714.878 324.056 718.608 321.174 722.703 317.965C732.769 310.082 742.668 302.009 753.146 293.46C783.628 268.594 815.149 242.882 850.513 222.562C863.793 214.967 877.423 208.402 891.027 203.047C904.203 197.861 917.785 193.641 931.392 190.506C957.345 184.527 983.821 182.221 1012.33 183.457C1037.14 184.457 1066.26 187.391 1094.17 201.552C1119.75 214.594 1142.18 234.344 1163.87 253.441C1168.85 257.832 1174.01 262.373 1179.02 266.659C1233.57 313.326 1289.75 366.042 1345.99 423.343L1345.85 423.472Z" fill="#0B2326"/>
<path d="M1343.84 421.741C1287.33 362.998 1233.64 311.131 1179.69 263.176C1174.54 258.601 1169.47 253.928 1164.11 248.981C1143.13 229.643 1121.44 209.648 1096.27 196.98C1068.05 182.84 1037.68 181.663 1014.37 182.219C958.624 183.374 906.471 198.594 854.938 228.751C824.019 246.933 795.472 268.766 767.865 289.882C753.355 300.98 739.651 311.46 725.676 321.407C721.527 324.362 717.673 327.055 713.896 329.638C690.482 345.63 670.631 357.116 651.42 365.788C628.103 376.314 606.303 382.355 584.773 384.256C573.711 385.233 562.725 385.049 552.12 383.71C540.891 382.292 530.083 379.572 519.996 375.628C497.639 366.884 479.04 352.351 464.715 332.43C464.038 331.485 463.364 330.517 462.709 329.554C451.51 313.095 443.318 294.735 435.395 276.981C433.281 272.244 431.095 267.345 428.896 262.582C418.067 239.067 406.739 219.108 394.266 201.563C392.662 199.308 391.005 197.046 389.34 194.839C358.953 154.615 318.242 121.474 271.607 99C228.564 78.3433 184.175 67.5654 143.471 67.5654C131.964 67.5654 120.76 68.426 109.954 70.1675C76.8739 75.6033 44.743 94.6859 28.0931 118.783C16.3416 135.793 12.4718 154.881 16.9023 173.982L16.7167 174.023C14.4039 164.056 14.3073 154.12 16.4288 144.493C18.3949 135.569 22.2666 126.884 27.934 118.68C36.4275 106.387 48.9329 95.2707 64.1015 86.5302C78.4196 78.279 94.2644 72.5581 109.92 69.9873C135.698 65.8313 163.612 66.6239 192.885 72.3392C219.282 77.4919 245.797 86.4052 271.69 98.8327C318.351 121.319 359.088 154.479 389.493 194.727C391.16 196.934 392.819 199.198 394.424 201.454C406.902 219.008 418.235 238.977 429.07 262.503C431.269 267.266 433.457 272.164 435.571 276.903C443.49 294.651 451.679 313.003 462.868 329.449C463.523 330.411 464.197 331.378 464.872 332.321C491.661 369.572 535.356 388.432 584.758 384.071C634.747 379.655 679.973 352.579 713.79 329.484C717.567 326.9 721.419 324.208 725.568 321.255C739.541 311.312 753.244 300.83 767.751 289.734C795.362 268.615 823.913 246.776 854.843 228.589C881.375 213.063 907.411 201.748 934.441 193.995C960.508 186.518 986.656 182.605 1014.37 182.031C1030.19 181.654 1043.09 182.309 1054.97 184.089C1070.32 186.388 1083.86 190.549 1096.36 196.813C1121.56 209.492 1143.25 229.498 1164.24 248.845C1169.6 253.792 1174.67 258.463 1179.82 263.038C1233.77 310.995 1287.47 362.866 1343.98 421.612L1343.84 421.741Z" fill="#0B2326"/>
<path d="M1341.83 420.007C1285.84 360.621 1233.06 308.136 1180.48 259.548C1175.27 254.741 1170.14 249.789 1164.71 244.546C1144.37 224.902 1123.33 204.588 1098.47 192.237C1070.01 178.164 1039.67 178.727 1016.42 180.788C963.81 185.292 912.404 202.951 859.266 234.772C833.085 250.526 808.157 268.555 784.05 285.992C764.993 299.774 746.994 312.794 728.53 324.694C724.357 327.386 720.266 329.96 716.373 332.344C692.914 346.695 671.826 357.292 651.905 364.744C628.051 373.666 605.882 378.157 584.129 378.469C573.061 378.627 562.119 377.657 551.612 375.58C540.597 373.403 529.997 369.999 520.106 365.461C498.516 355.554 480.368 340.404 466.167 320.427C465.5 319.484 464.83 318.515 464.176 317.546C453.188 301.288 444.818 283.316 436.722 265.936C434.432 261.019 432.062 255.932 429.681 250.988C418.409 227.517 406.83 207.727 394.283 190.481C392.656 188.247 390.976 186.005 389.288 183.819C358.502 143.967 317.48 111.293 270.659 89.3293C215.077 63.3636 157.507 53.7571 108.559 62.2787C75.9076 68.0621 43.9906 87.1943 27.248 111.018C15.2313 128.118 10.9315 147.349 14.8108 166.636L14.6252 166.671C12.6022 156.617 12.7575 146.605 15.0893 136.912C17.2543 127.914 21.2908 119.166 27.0908 110.913C35.6676 98.7078 48.1105 87.6467 63.0745 78.9246C77.2278 70.6752 92.9438 64.8568 108.525 62.0966C134.275 57.6152 162.218 58.0786 191.577 63.4777C218.039 68.3435 244.673 76.9846 270.741 89.1619C317.59 111.137 358.635 143.831 389.438 183.707C391.127 185.893 392.809 188.137 394.436 190.373C406.991 207.627 418.574 227.427 429.852 250.907C432.235 255.851 434.603 260.938 436.895 265.857C444.986 283.229 453.353 301.194 464.334 317.441C464.987 318.408 465.658 319.377 466.322 320.319C493.394 358.399 535.231 378.988 584.125 378.282C623.799 377.712 665.789 363.063 716.271 332.184C720.161 329.8 724.251 327.228 728.424 324.535C746.883 312.638 764.881 299.622 783.935 285.839C808.046 268.4 832.977 250.368 859.166 234.61C885.957 218.565 911.574 206.421 937.481 197.478C963.726 188.42 989.542 182.898 1016.4 180.599C1039.68 178.534 1070.05 177.973 1098.55 192.068C1123.44 204.433 1144.49 224.757 1164.85 244.41C1170.28 249.652 1175.41 254.603 1180.61 259.408C1233.19 307.998 1285.98 360.486 1341.97 419.876L1341.83 420.007Z" fill="#0B2326"/>
<path d="M1339.83 418.274C1284.35 358.242 1232.49 305.135 1181.27 255.922C1176.07 250.926 1170.93 245.734 1165.5 240.238C1145.73 220.243 1125.28 199.568 1100.66 187.497C1071.93 173.476 1041.65 175.783 1018.47 179.36C968.969 186.854 919.758 206.376 863.595 240.797C842.532 253.765 821.948 267.991 802.042 281.748C777.865 298.456 755.029 314.24 731.384 327.986C727.124 330.465 722.907 332.844 718.852 335.055C694.972 348.063 673.232 357.434 652.391 363.702C640.717 367.212 629.193 369.755 618.138 371.261C606.347 372.867 594.688 373.347 583.486 372.688C560.758 371.352 539.471 365.5 520.219 355.298C499.426 344.279 481.731 328.512 467.625 308.431C466.962 307.48 466.297 306.509 465.647 305.546C454.894 289.527 446.374 271.981 438.136 255.015C435.642 249.879 433.064 244.569 430.471 239.401C418.744 215.97 406.913 196.346 394.301 179.408C392.651 177.192 390.947 174.971 389.238 172.806C358.052 133.326 316.721 101.119 269.715 79.6682C213.761 54.234 156.034 45.2601 107.168 54.3977C54.8454 64.3334 3.85979 107.263 12.7245 159.296L12.537 159.325C10.3189 146.309 11.6184 133.486 16.3974 121.21C20.7616 109.998 27.9234 99.4459 37.6842 89.8504C46.7592 80.9279 57.6469 73.2246 70.0424 66.9539C81.8318 60.9903 94.6572 56.5842 107.13 54.2156C132.85 49.4069 160.823 49.5448 190.272 54.6276C216.798 59.2047 243.553 67.5736 269.795 79.5027C316.827 100.969 358.183 133.194 389.388 172.696C391.098 174.862 392.803 177.084 394.455 179.301C407.072 196.247 418.908 215.881 430.641 239.322C433.234 244.489 435.812 249.8 438.307 254.938C446.543 271.899 455.059 289.436 465.806 305.446C466.454 306.41 467.117 307.381 467.78 308.33C494.892 346.921 535.988 369.711 583.497 372.506C623.718 374.869 667.963 362.569 718.759 334.897C722.812 332.686 727.027 330.309 731.287 327.83C754.926 314.087 777.759 298.306 801.932 281.599C821.84 267.84 842.426 253.612 863.493 240.642C919.678 206.207 968.912 186.677 1018.44 179.178C1034.01 176.775 1046.91 176.006 1059.02 176.762C1074.5 177.727 1088.15 181.184 1100.75 187.332C1125.39 199.416 1145.85 220.103 1165.63 240.109C1171.07 245.604 1176.2 250.795 1181.4 255.79C1232.62 305.007 1284.49 358.115 1339.96 418.15L1339.83 418.274Z" fill="#0B2326"/>
<path d="M1337.82 416.544C1282.87 355.858 1231.92 302.134 1182.06 252.299C1176.9 247.142 1171.8 241.742 1166.4 236.021C1147.16 215.643 1127.27 194.571 1102.86 182.76C1073.5 168.62 1041.81 173.234 1020.52 177.934C962.738 190.535 910.956 219.829 867.926 246.826C852.46 256.569 837.034 266.889 822.114 276.869C792.184 296.889 763.915 315.799 734.241 331.283C729.877 333.561 725.535 335.744 721.334 337.772C696.988 349.503 674.597 357.645 652.882 362.662C628.265 368.35 604.704 369.78 582.847 366.912C560.393 363.964 539.36 356.638 520.335 345.135C500.38 333.072 483.137 316.689 469.082 296.44C468.427 295.49 467.766 294.517 467.12 293.55C456.634 277.825 448.008 260.762 439.664 244.259C436.931 238.851 434.103 233.26 431.261 227.819C418.902 204.093 407.164 185.195 394.323 168.339C392.65 166.143 390.925 163.944 389.192 161.798C357.602 122.693 315.961 90.9532 268.769 70.0097C212.444 45.1088 154.558 36.7656 105.775 46.5192C53.2646 57.1574 3.32083 99.5042 10.6361 151.96L10.4486 151.984C8.634 138.969 10.2043 126.159 15.114 113.91C19.6146 102.687 26.8181 92.1246 36.5277 82.5181C45.5818 73.5588 56.4128 65.7985 68.7211 59.4487C80.4404 53.4023 93.2413 48.8694 105.737 46.3372C131.428 41.2011 159.43 41.0135 188.965 45.7782C215.556 50.0665 242.432 58.1633 268.849 69.8424C316.069 90.7969 357.733 122.555 389.337 161.684C391.071 163.832 392.798 166.033 394.473 168.229C407.321 185.092 419.063 204.001 431.428 227.736C434.269 233.178 437.097 238.77 439.831 244.178C448.173 260.675 456.797 277.733 467.275 293.45C467.921 294.418 468.58 295.389 469.236 296.339C496.557 335.7 536.913 360.698 582.869 366.73C624.087 372.14 669.35 362.612 721.249 337.607C725.448 335.58 729.79 333.399 734.15 331.121C763.817 315.641 792.082 296.735 822.006 276.716C836.926 266.736 852.354 256.414 867.822 246.67C896.758 228.518 920.829 215.107 943.57 204.465C970.343 191.938 995.497 183.201 1020.47 177.754C1035.7 174.393 1048.97 172.87 1061.05 173.102C1076.59 173.4 1090.3 176.504 1102.94 182.594C1127.39 194.42 1147.29 215.506 1166.54 235.896C1171.94 241.615 1177.03 247.016 1182.19 252.168C1232.06 302.005 1283.01 355.733 1337.96 416.421L1337.82 416.544Z" fill="#0B2326"/>
<path d="M1335.81 414.809C1281.4 353.466 1231.36 299.122 1182.85 248.669C1177.76 243.378 1172.72 237.79 1167.39 231.872C1148.67 211.085 1129.3 189.59 1105.05 178.017C1075.38 163.911 1043.77 170.397 1022.57 176.504C970.216 191.456 923.521 219.926 872.257 252.849C863.011 258.809 853.66 264.96 844.615 270.911C809.83 293.794 773.864 317.456 737.096 334.573C732.629 336.654 728.159 338.642 723.812 340.481C699.301 350.838 675.601 357.947 653.369 361.612C628.184 365.764 604.242 365.601 582.201 361.129C560.062 356.636 539.285 347.833 520.445 334.964C501.38 321.941 484.586 304.944 470.532 284.445C469.882 283.493 469.227 282.518 468.584 281.551C458.415 266.194 449.734 249.686 441.339 233.722C438.314 227.97 435.186 222.023 432.044 216.236C419.201 192.534 407.219 173.797 394.334 157.269C392.643 155.099 390.893 152.918 389.135 150.788C357.152 112.051 315.203 80.7785 267.822 60.3462C211.128 35.9786 153.084 28.2679 104.381 38.6358C53.5376 49.5774 2.67127 90.4384 8.54512 144.617L8.35759 144.635C6.94643 131.621 8.78757 118.826 13.828 106.604C18.463 95.3686 25.7102 84.7966 35.3667 75.179C53.1833 57.437 78.3229 44.0515 104.339 38.4538C130 32.9922 158.032 32.4773 187.657 36.9238C214.312 40.9253 241.308 48.7481 267.898 60.177C315.306 80.6204 357.279 111.913 389.283 150.669C391.042 152.8 392.793 154.981 394.486 157.153C407.376 173.69 419.364 192.435 432.21 216.146C435.353 221.935 438.482 227.882 441.507 233.634C449.9 249.594 458.579 266.098 468.743 281.448C469.384 282.415 470.039 283.388 470.689 284.34C498.808 325.352 537.381 351.842 582.237 360.946C623.773 369.376 671.377 362.434 723.732 340.312C728.077 338.473 732.544 336.487 737.008 334.407C773.763 317.296 809.726 293.638 844.503 270.758C853.548 264.807 862.899 258.656 872.147 252.696C894.587 238.284 920.698 221.754 946.613 207.953C973.72 193.518 998.545 183.174 1022.51 176.329C1037.59 171.984 1050.86 169.729 1063.07 169.439C1078.46 169.071 1092.61 171.903 1105.13 177.854C1115.99 183.038 1126.93 190.774 1138.56 201.506C1148.82 210.982 1158.33 221.541 1167.53 231.751C1172.86 237.667 1177.9 243.255 1182.98 248.544C1231.5 298.999 1281.53 353.344 1335.95 414.689L1335.81 414.809Z" fill="#0B2326"/>
<path d="M1333.8 413.077C1279.92 351.073 1230.8 296.109 1183.64 245.046C1178.64 239.639 1173.69 233.881 1168.46 227.787C1150.22 206.568 1131.36 184.626 1107.25 173.281C1084.72 162.713 1057.69 163.302 1024.61 175.08C978.372 191.456 937.037 218.846 893.274 247.848C887.825 251.46 882.191 255.193 876.585 258.88C874.389 260.327 872.192 261.778 869.997 263.227C828.298 290.754 785.181 319.219 739.95 337.869C735.377 339.756 730.782 341.549 726.291 343.196C701.242 352.378 676.874 358.222 653.863 360.565C628.097 363.187 603.77 361.433 581.562 355.35C559.768 349.379 539.247 339.099 520.568 324.796C502.463 310.932 486.12 293.323 471.992 272.453C471.348 271.498 470.698 270.522 470.06 269.553C460.276 254.678 451.624 238.835 443.253 223.515C439.865 217.311 436.358 210.895 432.837 204.65C419.498 180.964 407.273 162.389 394.359 146.196C392.643 144.044 390.872 141.885 389.091 139.776C356.703 101.414 314.443 70.6067 266.877 50.6856C209.815 26.8531 151.61 19.7733 102.989 30.7553C53.0789 42.1217 2.28457 83.3174 6.45744 137.279L6.26803 137.294C5.26222 124.278 7.37233 111.497 12.5434 99.3069C17.3149 88.0581 24.6037 77.4733 34.2091 67.8483C51.95 50.0696 77.0024 36.4854 102.945 30.577C128.577 24.788 156.637 23.9458 186.35 28.076C213.069 31.787 240.188 39.3376 266.953 50.5164C314.546 70.4504 356.831 101.275 389.233 139.657C391.014 141.766 392.789 143.928 394.505 146.08C407.425 162.283 419.658 180.863 433 204.558C436.523 210.803 440.028 217.221 443.418 223.425C451.785 238.742 460.437 254.58 470.217 269.45C470.855 270.419 471.503 271.394 472.147 272.348C500.876 314.783 538.728 343.421 581.612 355.168C623.945 366.764 672.599 362.676 726.223 343.02C730.71 341.372 735.304 339.581 739.874 337.696C785.09 319.053 828.2 290.594 869.889 263.071C872.086 261.62 874.281 260.171 876.477 258.723C882.083 255.036 887.717 251.303 893.166 247.694C936.939 218.686 978.285 191.288 1024.55 174.905C1039.49 169.583 1052.75 166.599 1065.1 165.777C1080.55 164.749 1094.76 167.218 1107.33 173.114C1118.13 178.195 1128.92 185.966 1140.34 196.873C1150.4 206.496 1159.65 217.259 1168.6 227.668C1173.84 233.76 1178.78 239.516 1183.78 244.92C1230.94 295.986 1280.07 350.951 1333.95 412.958L1333.8 413.077Z" fill="#0B2326"/>
<path d="M1331.79 411.344C1282.61 353.565 1233.03 296.393 1184.42 241.418C1179.48 235.854 1174.57 229.875 1169.38 223.548C1152.49 202.963 1133.35 179.632 1109.44 168.542C1086.65 157.992 1059.57 159.663 1026.66 173.65C987.529 190.226 952.901 214.599 916.239 240.403C904.758 248.483 892.886 256.841 880.911 264.903C860.009 279.006 837.398 293.929 813.696 307.52C788.312 322.077 765.122 333.08 742.799 341.16C738.109 342.857 733.388 344.455 728.765 345.906C703.186 353.929 678.154 358.495 654.365 359.477C628.03 360.562 603.319 357.23 580.914 349.566C539.542 335.237 503.382 305.257 473.441 260.457C472.802 259.5 472.158 258.522 471.524 257.553C462.237 243.334 453.736 228.334 445.515 213.827C441.645 206.999 437.644 199.938 433.619 193.065C419.773 169.386 407.302 150.974 394.372 135.125C392.631 132.991 390.837 130.853 389.036 128.766C356.253 90.7733 313.684 60.4347 265.931 41.023C208.5 17.7237 150.138 11.2783 101.596 22.8727C51.3834 34.9343 1.86202 75.5838 4.36802 129.939L4.1786 129.946C3.57815 116.927 5.96102 104.161 11.259 92.0017C16.1688 80.7383 23.4992 70.1424 33.0497 60.5101C42.047 51.435 52.7112 43.5 64.745 36.924C76.4283 30.5411 88.8105 25.7525 101.549 22.6925C127.152 16.5781 155.243 15.4085 185.042 19.2206C211.826 22.6465 239.064 29.9232 266.003 40.8519C313.784 60.2747 356.378 90.6317 389.18 128.642C390.981 130.731 392.779 132.872 394.52 135.005C407.455 150.864 419.932 169.283 433.784 192.97C437.809 199.844 441.81 206.905 445.68 213.735C453.9 228.241 462.399 243.239 471.683 257.452C472.315 258.423 472.961 259.399 473.598 260.356C503.516 305.121 539.644 335.077 580.977 349.391C623.552 363.955 674.637 362.69 728.706 345.73C733.326 344.279 738.046 342.683 742.732 340.987C792.642 322.923 838.307 293.421 880.801 264.751C892.776 256.689 904.647 248.333 916.127 240.252C952.797 214.443 987.432 190.064 1026.58 173.481C1059.54 159.472 1086.67 157.8 1109.52 168.374C1120.23 173.341 1130.86 181.127 1142.03 192.174C1151.88 201.914 1160.85 212.854 1169.53 223.432C1174.72 229.759 1179.62 235.736 1184.57 241.297C1233.18 296.273 1282.76 353.446 1331.94 411.227L1331.79 411.344Z" fill="#0B2326"/>
<path d="M1329.79 409.613C1281.36 351.514 1232.72 293.706 1185.21 237.793C1180.42 232.168 1175.66 226.085 1170.63 219.645C1154.16 198.58 1135.48 174.703 1111.63 163.8C1088.57 153.269 1061.44 156.024 1028.7 172.219C994.406 189.163 962.894 213.087 932.421 236.227C917.141 247.828 901.339 259.826 885.239 270.927C859.826 288.467 838.445 301.847 817.948 313.037C792.674 326.834 769.025 337.11 745.653 344.451C740.855 345.959 736.006 347.36 731.242 348.616C706.421 355.157 682.046 358.467 658.729 358.469C657.433 358.469 656.145 358.458 654.857 358.438C627.899 358.011 602.805 353.079 580.272 343.782C569.396 339.269 558.745 333.541 548.617 326.755C539.096 320.378 529.741 312.866 520.81 304.429C504.742 289.25 489.721 270.942 474.893 248.461C474.257 247.494 473.622 246.525 472.991 245.552C464.388 232.288 456.249 218.422 448.378 205.013C443.834 197.273 439.137 189.268 434.405 181.476C419.837 157.471 407.496 139.758 394.387 124.048C392.623 121.935 390.807 119.817 388.983 117.75C355.802 80.1348 312.924 50.2633 264.986 31.361C207.187 8.59688 148.666 2.78403 100.204 14.9908C50.9323 27.4367 1.47533 68.3951 2.28036 122.597L2.09094 122.599C1.71589 97.3527 12.0221 73.3455 31.8939 53.1743C40.8761 44.0569 51.4836 36.0649 63.4245 29.4154C75.0434 22.946 87.401 18.0324 100.156 14.8106C125.73 8.36885 153.851 6.8738 183.737 10.3678C210.585 13.5068 237.945 20.5113 265.056 31.1881C313.024 50.1033 355.927 79.9932 389.129 117.631C390.953 119.699 392.773 121.82 394.536 123.933C407.652 139.652 419.998 157.37 434.57 181.384C439.302 189.178 444.001 197.182 448.543 204.923C456.414 218.33 464.551 232.194 473.152 245.454C473.783 246.427 474.416 247.396 475.052 248.362C506.56 296.133 541.002 327.29 580.346 343.613C634.84 366.099 692.455 358.649 731.193 348.44C735.953 347.184 740.798 345.784 745.594 344.276C799.349 327.391 848.401 296.128 885.129 270.778C901.227 259.68 917.027 247.683 932.305 236.083C962.786 212.94 994.304 189.008 1028.62 172.057C1043.27 164.81 1056.52 160.36 1069.15 158.455C1084.71 156.105 1099.03 157.848 1111.71 163.637C1122.39 168.519 1132.93 176.368 1143.91 187.629C1153.59 197.552 1162.33 208.727 1170.78 219.536C1175.81 225.975 1180.57 232.056 1185.36 237.678C1232.86 293.59 1281.5 351.399 1329.93 409.498L1329.79 409.613Z" fill="#0B2326"/>
<path d="M1327.78 407.879L1186 234.167C1181.37 228.494 1176.78 222.321 1171.91 215.787C1155.84 194.224 1137.63 169.784 1113.83 159.062C1090.81 148.694 1062.86 152.64 1030.75 170.792C999.888 188.242 971.738 211.447 944.515 233.889C926.77 248.518 908.421 263.643 889.569 276.955C832.904 316.967 783.383 340.599 733.723 351.329C713.122 355.779 692.799 358.019 673.091 358.019C667.116 358.019 661.203 357.813 655.352 357.401C627.757 355.459 602.281 348.931 579.632 338C558.641 327.868 539.437 313.565 520.931 294.271C506.153 278.864 491.986 260.497 476.35 236.468C468.097 223.786 460.105 210.61 452.377 197.868C434.886 169.034 416.801 139.218 394.41 112.976C360.064 72.7276 314.983 41.1643 264.039 21.6974C205.874 -0.529747 147.195 -5.71184 98.8116 7.10732C51.9685 19.5182 1.12685 58.6543 0.191127 115.256L0.00170898 115.253C0.420323 89.9529 11.0486 65.9493 30.7367 45.837C48.5381 27.6518 72.6965 13.8341 98.7623 6.92894C124.307 0.16169 152.458 -1.66069 182.43 1.51514C209.343 4.36548 236.823 11.0996 264.109 21.5264C289.317 31.1587 313.257 43.8381 335.268 59.2133C357.462 74.7173 377.409 92.7646 394.553 112.855C416.954 139.106 435.045 168.929 452.54 197.771C460.268 210.511 468.26 223.685 476.511 236.365C499.324 271.426 531.673 314.642 579.717 337.831C634.815 364.424 693.854 359.749 733.682 351.145C783.317 340.422 832.815 316.799 889.457 276.803C908.302 263.496 926.649 248.371 944.392 233.746C971.621 211.3 999.778 188.089 1030.66 170.63C1062.82 152.447 1090.83 148.497 1113.91 158.892C1124.57 163.694 1135 171.61 1145.81 183.098C1155.32 193.21 1163.83 204.632 1172.06 215.677C1176.93 222.21 1181.53 228.38 1186.15 234.051L1327.93 407.764L1327.78 407.879Z" fill="#0B2326"/>
<path d="M1326.64 394.525C1290.53 346.157 1259.56 306.909 1229.16 271.011C1214.4 253.573 1199.33 236.408 1184.36 219.994C1179.83 215.029 1175.35 209.747 1170.6 204.155C1158.67 190.1 1146.32 175.567 1132.12 164.782C1124.5 158.98 1117.16 154.826 1109.69 152.082C1086.74 143.577 1059.82 149.201 1029.68 168.798C1014.07 178.925 999.867 190.45 988.028 200.387C975.495 210.908 963.131 222.51 951.173 233.729C933.987 249.856 916.216 266.532 897.112 280.853C885.487 289.594 873.703 297.404 862.086 304.068C838.845 317.4 813.898 328.386 787.941 336.72C771.903 341.812 755.787 345.661 740.044 348.158C726.476 350.302 712.884 351.54 699.641 351.836C679.823 352.281 660.513 350.583 642.25 346.786C622.831 342.748 604.453 336.302 587.629 327.626C572.627 319.89 558.457 310.149 544.309 297.845C517.946 274.936 496.919 248.446 481.546 227.927C473.994 217.8 466.62 207.473 459.488 197.485C438.953 168.723 419.557 141.556 395.285 117.358C375.489 97.7512 352.903 80.8312 328.148 67.065C309.124 56.4857 288.434 47.8335 266.653 41.3476C261.465 39.8047 256.178 38.3667 250.945 37.0776C228.411 31.5369 203.045 27.929 175.551 26.353C147.831 24.7274 123.849 26.1342 102.238 30.6579C90.0208 33.1956 78.1841 37.1769 67.052 42.4896C27.7516 61.2466 2.51544 92.7346 -0.454634 126.722L-0.691406 126.701C0.100361 117.641 2.42453 108.717 6.21479 100.173C9.81562 92.0579 14.7613 84.2314 20.9136 76.9106C32.5382 63.0819 48.4569 51.1068 66.9478 42.2818C78.097 36.9599 89.9526 32.9731 102.189 30.4317C123.822 25.9043 147.824 24.4957 175.566 26.1231C203.075 27.6991 228.455 31.3107 251.003 36.8551C256.243 38.146 261.531 39.5841 266.723 41.1288C288.521 47.6183 309.228 56.2779 328.267 66.8664C353.039 80.6418 375.644 97.5765 395.45 117.196C419.737 141.409 439.137 168.583 459.679 197.353C466.809 207.34 474.183 217.666 481.733 227.791C497.099 248.3 518.117 274.777 544.465 297.672C558.597 309.963 572.752 319.695 587.737 327.422C620.664 344.401 658.31 352.538 699.634 351.606C712.865 351.31 726.448 350.072 740.005 347.93C755.736 345.433 771.84 341.587 787.865 336.499C813.807 328.171 838.739 317.192 861.965 303.867C873.574 297.209 885.351 289.402 896.966 280.669C916.059 266.355 933.826 249.683 951.007 233.561C962.966 222.34 975.332 210.735 987.871 200.211C999.715 190.268 1013.93 178.739 1029.54 168.605C1042.97 159.879 1055.96 153.851 1068.17 150.687C1083.17 146.799 1097.17 147.196 1109.77 151.867C1117.27 154.62 1124.63 158.785 1132.27 164.6C1146.49 175.402 1158.84 189.944 1170.78 204.008C1175.53 209.598 1180.01 214.88 1184.54 219.841C1199.51 236.257 1214.58 253.424 1229.34 270.866C1259.75 306.767 1290.72 346.019 1326.83 394.39L1326.64 394.525Z" fill="#0B2326"/>
<path d="M1325.49 381.168C1292.02 331.982 1260.61 290.823 1229.45 255.341C1214.26 238.009 1198.54 221.349 1182.72 205.823C1178.52 201.703 1174.38 197.422 1169.99 192.891C1156.85 179.322 1143.27 165.291 1128.05 155.583C1120.37 150.66 1113.01 147.233 1105.54 145.103C1076.96 136.946 1047.93 152.4 1028.6 166.801C1014.91 176.973 1002.4 188.476 989.735 200.35C978.648 210.744 968.217 221.924 957.174 233.76C940.784 251.329 923.835 269.495 904.654 284.749C893.272 293.85 881.394 301.719 869.349 308.137C846.912 320.094 822.343 329.378 794.237 336.524C778.508 340.522 762.399 343.371 746.359 344.987C732.826 346.335 719.316 346.817 706.205 346.414C686.699 345.822 667.632 343.159 649.531 338.501C630.521 333.608 612.382 326.458 595.621 317.251C580.935 309.185 566.755 299.178 552.271 286.658C525.964 263.953 503.429 238.782 486.738 219.388C480.559 212.209 474.479 204.986 468.597 197.998C445.176 170.171 423.053 143.886 396.16 121.741C376.061 105.191 353.495 91.1967 329.095 80.1484C310.632 71.7887 291.063 65.5253 269.273 60.9997C264.244 59.957 259.127 59.0173 254.068 58.2063C231.846 54.6627 208.129 53.3222 179.434 51.9356C158.749 50.8856 131.672 50.1941 105.659 54.2067C93.3393 56.0714 81.4306 59.3097 70.2607 63.828C30.9337 79.7402 4.2561 107.537 -1.10443 138.189L-1.38477 138.143C0.0358689 130.015 2.915 122.043 7.16744 114.446C11.221 107.208 16.5474 100.268 22.9971 93.8135C35.2543 81.5515 51.5594 71.0935 70.1508 63.5723C81.3416 59.0449 93.273 55.801 105.614 53.9327C131.651 49.9146 158.749 50.6079 179.447 51.6579C208.151 53.0445 231.876 54.3851 254.113 57.9305C259.177 58.7433 264.297 59.683 269.331 60.7257C291.143 65.2568 310.73 71.5257 329.214 79.8947C353.639 90.954 376.224 104.959 396.344 121.526C423.256 143.687 445.388 169.98 468.817 197.818C474.696 204.804 480.777 212.027 486.955 219.204C503.643 238.59 526.169 263.752 552.46 286.447C566.928 298.953 581.092 308.95 595.761 317.006C628.72 335.11 665.883 344.91 706.214 346.135C719.314 346.535 732.81 346.055 746.331 344.708C762.356 343.093 778.451 340.248 794.165 336.252C822.248 329.113 846.796 319.836 869.214 307.89C881.244 301.48 893.107 293.622 904.476 284.53C923.64 269.289 940.581 251.13 956.966 233.57C968.013 221.729 978.446 210.547 989.54 200.148C1002.21 188.266 1014.72 176.76 1028.43 166.576C1040.96 157.24 1053.32 150.524 1065.16 146.611C1079.52 141.867 1093.14 141.269 1105.63 144.833C1113.12 146.971 1120.51 150.41 1128.21 155.348C1143.45 165.074 1157.05 179.118 1170.2 192.698C1174.58 197.227 1178.73 201.507 1182.92 205.624C1198.75 221.156 1214.47 237.822 1229.67 255.159C1260.83 290.65 1292.25 331.817 1325.73 381.014L1325.49 381.168Z" fill="#0B2326"/>
<path d="M1324.35 367.808C1293.02 317.137 1262.08 275.222 1229.75 239.67C1214.12 222.445 1197.74 206.29 1181.08 191.65C1177.51 188.52 1173.85 185.199 1170.3 181.989C1155.66 168.723 1140.52 155.006 1123.98 146.383C1116.22 142.308 1108.84 139.605 1101.41 138.121C1072.88 132.422 1045.49 149.484 1027.53 164.798C1015.35 175.137 1004.22 186.854 993.461 198.188L991.446 200.31C981.674 210.591 972.508 221.868 962.802 233.808C947.347 252.82 931.368 272.478 912.197 288.643C901.042 298.117 889.069 306.044 876.609 312.205C854.885 322.946 830.708 330.611 800.528 336.326C784.921 339.281 768.821 341.128 752.671 341.812C739.171 342.361 725.745 342.086 712.763 340.988C673.458 337.68 636.734 326.201 603.609 306.872C589.289 298.516 575.099 288.245 560.232 275.469C535.072 253.892 512.694 231.715 491.932 210.849C489.147 208.052 486.393 205.273 483.66 202.516C455.302 173.923 428.518 146.915 397.041 126.127C376.491 112.556 353.948 101.489 330.042 93.2327C312.491 87.1716 293.469 83.0561 271.894 80.6508C267.032 80.112 262.086 79.6688 257.194 79.3341C244.885 78.5066 231.831 78.3723 218.009 78.2307C206.907 78.1167 195.428 77.999 183.315 77.5191C159.92 76.5132 133.405 75.3749 109.077 77.7581C96.5238 78.9884 84.5432 81.482 73.466 85.1708C34.1542 98.264 6.03323 122.374 -1.75753 149.666L-2.07764 149.579C-0.0243471 142.384 3.4079 135.364 8.12251 128.717C12.6307 122.359 18.3359 116.302 25.0792 110.714C37.9767 100.026 54.672 91.0885 73.3561 84.8656C84.4579 81.1675 96.4632 78.6684 109.041 77.4363C133.394 75.0512 159.922 76.1914 183.326 77.1973C195.432 77.6754 206.911 77.7949 218.009 77.9089C231.836 78.0505 244.895 78.1848 257.215 79.0141C262.111 79.3506 267.062 79.7938 271.929 80.3326C293.53 82.7398 312.574 86.8608 330.15 92.9311C354.085 101.197 376.652 112.277 397.225 125.863C428.731 146.668 455.528 173.689 483.897 202.296C486.63 205.052 489.386 207.829 492.169 210.628C512.927 231.491 535.297 253.663 560.45 275.231C575.302 287.994 589.476 298.255 603.779 306.6C636.861 325.905 673.538 337.367 712.791 340.671C725.759 341.767 739.171 342.043 752.656 341.493C768.789 340.809 784.874 338.965 800.463 336.013C830.613 330.304 854.762 322.648 876.458 311.922C888.891 305.774 900.841 297.861 911.977 288.404C931.124 272.26 947.093 252.613 962.539 233.611C972.248 221.665 981.42 210.383 991.199 200.095L993.215 197.972C1003.98 186.634 1015.12 174.909 1027.3 164.559C1045.32 149.195 1072.82 132.084 1101.47 137.808C1108.94 139.3 1116.35 142.012 1124.14 146.104C1140.71 154.745 1155.87 168.476 1170.53 181.757C1174.07 184.968 1177.74 188.289 1181.3 191.417C1197.97 206.064 1214.35 222.228 1229.99 239.462C1262.34 275.029 1293.29 316.958 1324.63 367.647L1324.35 367.808Z" fill="#0B2326"/>
<path d="M1323.21 354.448C1294.44 303.011 1263.1 259.121 1230.05 224.001C1213.98 206.885 1196.95 191.234 1179.44 177.482C1176.91 175.496 1174.32 173.435 1171.81 171.441C1155.27 158.273 1138.15 144.654 1119.92 137.188C1112.1 133.949 1104.69 131.972 1097.28 131.141C1068.83 127.956 1043.07 146.597 1026.46 162.796C1016.14 172.804 1006.83 183.933 997.829 194.696C996.272 196.559 994.715 198.418 993.156 200.27C984.592 210.443 976.586 221.808 968.109 233.838C953.698 254.29 938.797 275.438 919.741 292.54C908.55 302.583 896.818 310.346 883.869 316.279C856.786 328.686 829.72 333.278 806.818 336.136C791.327 338.066 775.234 338.912 758.982 338.644C745.524 338.396 732.18 337.36 719.322 335.569C681.198 330.271 644.955 317.127 611.6 296.499C597.721 287.919 583.524 277.382 568.195 264.287C552.71 251.091 538.28 238.393 524.324 226.113C514.84 217.766 505.88 209.882 497.131 202.319C464.059 173.727 433.765 148.589 397.929 130.52C376.938 119.937 354.418 111.794 330.994 106.319C314.206 102.395 296.261 100.484 274.521 100.302C269.831 100.269 265.054 100.323 260.324 100.462C253.14 100.689 245.707 101.161 237.841 101.663C222.744 102.625 205.63 103.715 187.196 103.105C180.176 102.871 173.014 102.542 166.087 102.222C148.271 101.4 129.848 100.551 112.491 101.31C99.7455 101.869 87.6909 103.62 76.6668 106.514C37.4213 116.821 7.85882 137.246 -2.41521 161.151L-2.76562 161.009C-0.0758908 154.749 3.90947 148.685 9.07868 142.982C14.0433 137.506 20.1274 132.333 27.1586 127.609C40.7077 118.506 57.7913 111.09 76.5645 106.159C87.6151 103.258 99.6962 101.501 112.471 100.942C129.846 100.181 148.276 101.032 166.102 101.854C173.027 102.174 180.189 102.504 187.207 102.737C205.624 103.348 222.725 102.259 237.814 101.297C245.684 100.795 253.119 100.323 260.311 100.096C265.047 99.9567 269.828 99.9034 274.523 99.9365C296.293 100.117 314.265 102.033 331.082 105.963C354.533 111.444 377.084 119.596 398.101 130.194C414.289 138.355 430.693 148.696 448.25 161.803C463.968 173.538 479.258 186.377 497.381 202.045C506.13 209.61 515.09 217.494 524.576 225.84C538.53 238.119 552.96 250.817 568.441 264.011C583.756 277.093 597.937 287.619 611.799 296.19C645.108 316.79 681.3 329.916 719.371 335.207C732.214 336.996 745.541 338.03 758.984 338.278C775.217 338.546 791.293 337.702 806.765 335.771C829.639 332.919 856.669 328.333 883.704 315.948C896.617 310.032 908.319 302.288 919.48 292.272C938.503 275.199 953.393 254.068 967.793 233.632C976.275 221.594 984.285 210.224 992.859 200.04C994.417 198.188 995.972 196.329 997.529 194.468C1006.54 183.698 1015.85 172.561 1026.18 162.541C1036.99 152.002 1048.07 143.894 1059.13 138.444C1072.23 131.987 1085.08 129.409 1097.31 130.781C1104.76 131.616 1112.21 133.602 1120.06 136.853C1138.34 144.339 1155.48 157.975 1172.05 171.16C1174.55 173.153 1177.14 175.215 1179.67 177.199C1197.19 190.961 1214.23 206.627 1230.31 223.757C1247.87 242.405 1265.06 263.652 1281.4 286.907C1295.85 307.461 1310.02 330.128 1323.53 354.275L1323.21 354.448Z" fill="#0B2326"/>
<path d="M1322.06 341.086C1295.44 288.174 1264.58 243.51 1230.34 208.334C1213.83 191.325 1196.16 176.18 1177.8 163.315C1176.93 162.702 1176.06 162.09 1175.18 161.476C1156.1 148.081 1136.37 134.23 1115.87 127.995C1107.93 125.578 1100.5 124.326 1093.16 124.164C1064.83 123.543 1040.67 143.741 1025.39 160.794C1016.4 170.77 1008.42 181.704 1000.7 192.278C998.797 194.893 996.823 197.596 994.876 200.229C987.456 210.259 980.56 221.662 973.26 233.737C959.979 255.699 946.249 278.408 927.292 296.437C916.324 306.867 904.497 314.69 891.134 320.354C864.807 331.51 838.074 334.44 813.109 335.944C797.715 336.871 781.627 336.713 765.294 335.475C751.879 334.427 738.62 332.634 725.882 330.148C689.055 322.976 653.293 308.165 619.594 286.126C606.098 277.301 592.297 266.808 576.164 253.104C545.503 227.131 522.735 208.837 502.342 193.79C461.782 163.861 430.825 146.253 398.835 134.914C377.417 127.323 354.92 122.106 331.965 119.407C316.038 117.535 299.137 117.702 277.164 119.955C272.662 120.422 268.055 120.972 263.471 121.591C259.141 122.185 254.743 122.866 250.085 123.585C232.888 126.242 213.395 129.254 191.085 128.692C179.326 128.395 167.315 127.584 155.7 126.801C142.499 125.911 128.85 124.99 115.909 124.865C102.934 124.74 90.8052 125.747 79.8701 127.862C40.7554 135.422 9.74764 152.165 -3.07405 172.649L-3.43774 172.434C-0.107778 167.112 4.43069 162.002 10.0507 157.245C15.4756 152.651 21.9348 148.364 29.2501 144.501C43.4602 136.994 60.9359 131.099 79.7868 127.456C90.7522 125.337 102.907 124.326 115.913 124.451C128.865 124.576 142.522 125.497 155.728 126.389C167.34 127.173 179.345 127.984 191.094 128.28C213.364 128.84 232.836 125.832 250.015 123.178C254.674 122.458 259.077 121.779 263.408 121.183C267.998 120.563 272.609 120.014 277.115 119.545C299.121 117.29 316.052 117.121 332.012 118.999C355 121.702 377.529 126.926 398.977 134.528C431.011 145.882 462 163.508 502.596 193.462C522.996 208.516 545.772 226.815 576.44 252.795C592.562 266.488 606.348 276.97 619.829 285.786C653.482 307.794 689.191 322.584 725.963 329.745C738.684 332.228 751.929 334.017 765.324 335.065C781.639 336.301 797.705 336.459 813.08 335.534C838.008 334.032 864.695 331.11 890.961 319.979C904.276 314.337 916.061 306.54 926.99 296.146C945.906 278.156 959.623 255.471 972.888 233.532C980.194 221.451 987.095 210.038 994.526 199.994C996.473 197.363 998.446 194.659 1000.35 192.044C1008.08 181.461 1016.06 170.52 1025.07 160.527C1035.04 149.398 1045.49 140.595 1056.13 134.361C1068.6 127.059 1081.06 123.493 1093.16 123.756C1100.55 123.918 1108.02 125.177 1116 127.605C1136.56 133.863 1156.32 147.732 1175.43 161.147C1176.31 161.761 1177.18 162.375 1178.05 162.986C1196.43 175.866 1214.12 191.029 1230.65 208.056C1264.92 243.264 1295.8 287.963 1322.44 340.911L1322.06 341.086Z" fill="#0B2326"/>
<path d="M822.534 335.753C821.471 335.753 820.424 335.751 819.393 335.746C804.079 335.683 787.997 334.525 771.6 332.3C758.234 330.452 745.058 327.901 732.437 324.721C714.405 320.187 696.308 313.669 678.645 305.352C661.588 297.32 644.409 287.36 627.585 275.747C611.1 264.37 595.702 251.692 584.129 241.918C557.05 219.112 531.285 200.05 507.551 185.259C469.111 161.305 434.854 146.702 399.742 139.304C378.559 134.841 355.833 132.487 333.952 132.487C333.612 132.487 333.275 132.487 332.936 132.489C314.138 132.552 296.292 135.943 279.808 139.598C275.518 140.557 271.08 141.603 266.617 142.712C264.172 143.326 261.723 143.959 259.132 144.628C240.855 149.356 220.138 154.713 194.97 154.273C179.642 154.005 163.987 152.464 148.847 150.972C139.071 150.009 128.964 149.014 119.322 148.412C106.069 147.587 93.872 147.852 83.0676 149.203C44.1611 154.065 11.7082 167.129 -3.74643 184.15L-4.10254 183.847C3.8246 175.117 15.7485 167.559 31.3376 161.381C46.2258 155.481 64.0936 151.112 83.007 148.749C93.8398 147.396 106.069 147.127 119.352 147.956C129.003 148.558 139.116 149.554 148.896 150.518C164.027 152.009 179.673 153.55 194.979 153.817C220.083 154.257 240.764 148.907 259.01 144.188C261.603 143.517 264.053 142.885 266.5 142.27C270.966 141.162 275.408 140.113 279.702 139.155C296.214 135.494 314.091 132.097 332.934 132.033C355.164 131.958 378.298 134.319 399.842 138.859C417.964 142.679 435.533 148.3 453.548 156.046C470.899 163.506 488.647 172.936 507.805 184.877C531.558 199.678 557.341 218.755 584.438 241.576C596.002 251.345 611.388 264.013 627.856 275.377C661.995 298.942 697.221 315.394 732.555 324.282C745.159 327.458 758.318 330.005 771.664 331.851C788.041 334.072 804.1 335.231 819.393 335.292C843.325 335.387 871.112 334.604 898.214 324.002C911.932 318.636 923.799 310.79 934.495 300.015C953.28 281.093 965.732 256.806 977.777 233.318C983.973 221.236 989.824 209.823 996.187 199.945C998.225 196.78 1000.28 193.52 1002.27 190.366C1008.99 179.711 1015.94 168.696 1023.94 158.514C1033.09 146.8 1042.91 137.298 1053.12 130.273C1064.96 122.129 1077.03 117.572 1089 116.73C1096.38 116.209 1103.88 116.741 1111.91 118.355C1133.4 122.669 1154.69 135.203 1176.43 148.769C1195.38 160.597 1214.24 175.667 1230.98 192.352C1249.57 210.831 1267.03 232.51 1282.89 256.786C1297.01 278.414 1309.95 302.22 1321.35 327.546L1320.91 327.73C1296.45 273.342 1266.08 227.902 1230.64 192.674C1213.93 176.013 1195.09 160.965 1176.17 149.157C1154.47 135.615 1133.22 123.105 1111.82 118.806C1103.83 117.2 1096.37 116.673 1089.03 117.189C1067.05 118.74 1044.06 133.513 1024.32 158.793C1016.33 168.957 1009.39 179.963 1002.67 190.607C1000.69 193.762 998.626 197.024 996.588 200.189C990.237 210.05 984.39 221.453 978.202 233.524C972.292 245.048 966.181 256.966 959.169 268.423C951.219 281.411 943.261 291.849 934.838 300.335C924.094 311.158 912.174 319.039 898.392 324.431C886.237 329.186 873.173 332.329 858.453 334.043C845.988 335.487 833.467 335.753 822.534 335.753Z" fill="#0B2326"/>
<path d="M852.909 336.675C843.251 336.675 833.973 336.116 825.673 335.55C810.411 334.509 794.337 332.348 777.9 329.126C764.591 326.48 751.499 323.174 738.986 319.295C704.722 308.698 670.894 291.057 635.569 265.369C620.164 254.168 605.641 242.116 592.09 230.733C565.337 208.325 538.648 190.157 512.76 176.729C474.687 156.981 439.065 146.482 400.655 143.691C378.77 142.1 355.691 142.749 333.912 145.567C315.682 147.924 298.496 153.614 282.452 159.237C278.439 160.651 274.169 162.196 269.765 163.827C268.665 164.237 267.555 164.655 266.43 165.076C247.952 172.012 227.044 179.861 200.211 179.861C199.758 179.861 199.308 179.859 198.851 179.853C180.697 179.675 162.163 177.159 144.236 174.725C137.129 173.759 129.78 172.762 122.728 171.955C108.953 170.381 97.0238 169.916 86.2553 170.537C47.0894 172.799 14.0303 181.95 -4.44172 195.648L-4.75806 195.245C4.37378 188.474 17.5781 182.595 33.4229 178.244C49.0082 173.965 67.2662 171.126 86.2231 170.032C97.0219 169.408 108.982 169.873 122.786 171.451C129.846 172.259 137.197 173.257 144.306 174.221C162.216 176.652 180.733 179.166 198.853 179.344C226.245 179.616 247.494 171.637 266.238 164.599C267.362 164.178 268.473 163.761 269.574 163.349C273.982 161.716 278.253 160.171 282.271 158.757C298.341 153.123 315.559 147.426 333.838 145.061C355.651 142.24 378.768 141.589 400.689 143.181C419.724 144.564 437.872 147.83 456.17 153.163C475.015 158.656 493.604 166.216 513.001 176.278C538.921 189.725 565.644 207.915 592.425 230.345C605.971 241.724 620.484 253.769 635.876 264.959C671.153 290.612 704.93 308.227 739.139 318.808C751.633 322.679 764.708 325.982 777.998 328.624C794.413 331.842 810.464 334.001 825.703 335.038C851.346 336.785 878.626 337.683 905.463 328.016C919.584 322.927 931.534 315.031 941.994 303.874C960.629 284.001 972.227 256.893 982.461 232.976C987.61 220.942 992.474 209.576 997.84 199.887C999.776 196.391 1001.73 192.777 1003.61 189.283C1009.5 178.351 1015.6 167.047 1022.81 156.49C1031.16 144.191 1040.35 133.99 1050.11 126.171C1061.32 117.192 1073 111.646 1084.82 109.691C1092.21 108.468 1099.74 108.273 1107.82 109.09C1130.41 111.375 1153.36 122.67 1174.79 134.537C1194.58 145.493 1214.12 160.05 1231.3 176.633C1250.41 195.026 1268.01 216.922 1283.62 241.709C1297.58 263.876 1309.91 288.253 1320.25 314.167L1319.77 314.349C1297.78 259.266 1267.06 211.768 1230.93 176.99C1213.79 160.438 1194.29 145.909 1174.54 134.974C1153.15 123.135 1130.26 111.868 1107.77 109.592C1099.73 108.779 1092.26 108.974 1084.92 110.187C1063.09 113.797 1041.19 130.338 1023.25 156.766C1016.05 167.301 1009.96 178.594 1004.07 189.515C1002.19 193.011 1000.24 196.624 998.302 200.124C992.948 209.791 988.089 221.146 982.944 233.167C972.693 257.121 961.076 284.273 942.381 304.213C931.862 315.43 919.846 323.37 905.645 328.488C893.321 332.927 880.028 335.498 865.002 336.342C860.938 336.581 856.893 336.675 852.909 336.675Z" fill="#0B2326"/>
<path d="M871.974 338.665C871.836 338.665 871.699 338.665 871.561 338.665C857.912 338.632 844.51 337.01 831.952 335.351C816.713 333.34 800.649 330.175 784.202 325.949C770.954 322.508 757.944 318.443 745.538 313.867C712.643 301.754 680.24 283.047 643.559 254.99C630.349 244.889 617.349 234.012 604.775 223.495C603.203 222.178 601.629 220.863 600.055 219.549C573.164 197.147 545.548 179.87 517.979 168.2C480.226 152.222 442.151 145.638 401.577 148.075C379.33 149.412 356.272 153.066 334.897 158.642C318.031 163.042 303.002 170.102 285.106 178.873C281.479 180.659 277.605 182.586 272.919 184.94L272.658 185.072C263.617 189.644 253.369 194.824 241.875 198.763C228.675 203.287 215.868 205.464 202.736 205.439C182.258 205.389 161.36 201.689 141.151 198.109C136.199 197.231 131.077 196.325 126.133 195.505C111.956 193.156 99.954 191.97 89.4432 191.88C50.7414 191.549 16.2635 197.117 -5.14828 207.154L-5.39453 206.658C5.09354 201.74 19.2412 197.75 35.5178 195.117C51.8248 192.478 70.4749 191.169 89.4489 191.33C99.99 191.42 112.022 192.608 126.23 194.962C131.178 195.782 136.3 196.689 141.253 197.566C161.437 201.141 182.309 204.837 202.738 204.887C202.829 204.887 202.922 204.887 203.013 204.887C232.234 204.887 254.496 193.633 272.396 184.583L272.66 184.451C277.348 182.095 281.221 180.168 284.851 178.382C302.777 169.596 317.832 162.524 334.751 158.11C356.163 152.523 379.258 148.864 401.543 147.525C421.398 146.334 440.126 147.242 458.801 150.306C478.924 153.607 498.357 159.294 518.206 167.696C545.829 179.388 573.491 196.693 600.426 219.131C602 220.446 603.575 221.763 605.147 223.079C617.715 233.593 630.711 244.466 643.909 254.56C680.543 282.582 712.899 301.263 745.738 313.356C758.128 317.926 771.118 321.984 784.347 325.421C800.772 329.642 816.814 332.801 832.028 334.809C859.279 338.41 885.959 340.907 912.723 332.051C927.248 327.244 939.28 319.298 949.503 307.757C967.971 286.909 978.059 258.021 986.962 232.531C991.129 220.599 995.065 209.326 999.505 199.854C1001.21 196.209 1002.93 192.439 1004.59 188.793C1009.77 177.391 1015.13 165.604 1021.7 154.489C1029.26 141.6 1037.81 130.699 1047.1 122.089C1057.7 112.277 1068.99 105.745 1080.66 102.677C1087.9 100.776 1095.28 99.8492 1103.22 99.8492C1103.39 99.8492 1103.56 99.8492 1103.74 99.851C1128.41 99.9761 1153.8 110.859 1173.17 120.326C1193.8 130.412 1214.01 144.454 1231.63 160.935C1251.26 179.243 1269 201.354 1284.37 226.656C1298.15 249.361 1309.86 274.31 1319.16 300.813L1318.62 300.991C1304.79 261.557 1278.39 205.319 1231.24 161.334C1213.66 144.89 1193.49 130.881 1172.91 120.818C1153.6 111.377 1128.29 100.526 1103.73 100.403C1095.65 100.357 1088.15 101.28 1080.81 103.211C1059.18 108.895 1038.36 127.203 1022.19 154.763C1015.63 165.852 1010.28 177.627 1005.1 189.015C1003.45 192.664 1001.73 196.435 1000.02 200.082C995.594 209.53 991.661 220.788 987.5 232.708C978.582 258.243 968.475 287.186 949.935 308.115C939.644 319.733 927.53 327.733 912.907 332.571C900.514 336.67 887.118 338.665 871.974 338.665Z" fill="#0B2326"/>
<path d="M887.133 341.254C884.193 341.254 881.189 341.162 878.113 340.978C864.649 340.175 851.564 337.764 838.229 335.152C822.771 332.126 807.159 328.076 790.502 322.773C777.322 318.54 764.398 313.718 752.088 308.438C720.858 295.066 689.851 275.38 651.549 244.611C642.036 236.97 632.527 228.956 623.331 221.205C618.325 216.987 613.15 212.623 608.022 208.362C580.81 185.809 552.273 169.428 523.201 159.671C484.789 146.778 445.31 144.417 402.506 152.453C379.891 156.699 356.854 163.358 335.887 171.709C319.044 178.417 304.372 187.838 288.838 197.812L287.764 198.502C285.337 200.065 282.884 201.65 280.401 203.254C278.971 204.179 277.531 205.109 276.079 206.047C267.021 211.926 257.237 218.059 246.018 222.779C232.992 228.259 220.108 230.955 206.625 231.021C184.179 231.128 161.284 226.064 139.145 221.161C135.985 220.46 132.716 219.738 129.543 219.052C114.668 215.834 102.941 213.982 92.6332 213.221C54.5943 210.412 18.6958 212.391 -5.86035 218.651L-6.01758 218.073C18.603 211.797 54.5753 209.811 92.6805 212.625C103.017 213.388 114.774 215.245 129.678 218.469C132.852 219.157 136.122 219.879 139.283 220.58C161.151 225.422 183.756 230.426 205.905 230.426C206.144 230.426 206.382 230.426 206.623 230.424C235.27 230.284 255.663 218.577 275.74 205.55C277.192 204.612 278.632 203.682 280.062 202.757C282.545 201.152 284.996 199.568 287.425 198.003L288.499 197.314C304.059 187.323 318.756 177.886 335.654 171.155C356.659 162.788 379.736 156.118 402.39 151.865C445.303 143.808 484.887 146.177 523.403 159.105C552.547 168.888 581.151 185.306 608.424 207.908C613.551 212.17 618.728 216.532 623.734 220.753C632.927 228.502 642.434 236.514 651.941 244.149C690.197 274.883 721.161 294.542 752.336 307.892C764.629 313.163 777.534 317.979 790.695 322.205C807.328 327.501 822.917 331.544 838.352 334.566C861.783 339.154 890.944 344.866 919.984 336.068C934.914 331.546 947.025 323.551 957.009 311.623C975.3 289.777 983.78 259.05 991.264 231.943C994.514 220.166 997.585 209.042 1001.17 199.811C1002.56 196.214 1003.96 192.494 1005.32 188.895C1009.86 176.826 1014.55 164.347 1020.58 152.479C1027.37 138.99 1035.29 127.389 1044.09 117.995C1054.07 107.352 1064.97 99.8359 1076.49 95.656C1083.88 92.973 1091.45 91.3199 1099.64 90.6008C1110.62 89.6372 1122.29 90.667 1135.34 93.7417C1146.39 96.3456 1158.23 100.388 1171.54 106.101C1193.01 115.316 1213.9 128.845 1231.96 145.224C1252.11 163.446 1269.99 185.776 1285.11 211.591C1298.72 234.837 1309.81 260.358 1318.07 287.447L1317.48 287.616C1300.04 230.426 1269.52 180.011 1231.54 145.662C1213.53 129.327 1192.69 115.836 1171.29 106.649C1142.61 94.3394 1119.86 89.4276 1099.7 91.1966C1091.56 91.9101 1084.04 93.5523 1076.7 96.2151C1049.3 106.158 1031.36 132.444 1021.13 152.742C1015.12 164.581 1010.43 177.045 1005.89 189.099C1004.54 192.7 1003.14 196.422 1001.74 200.021C998.172 209.225 995.105 220.335 991.859 232.097C984.359 259.264 975.86 290.055 957.487 312C947.423 324.021 935.215 332.081 920.166 336.64C909.966 339.73 899.087 341.254 887.133 341.254Z" fill="#0B2326"/>
<path d="M900.267 344.223C880.237 344.223 860.978 339.227 844.503 334.953C829.003 330.933 813.398 325.909 796.798 319.596C783.692 314.576 770.851 308.997 758.634 303.011C722.01 285.089 689.36 259.364 659.534 234.233C653.445 229.103 647.292 223.814 641.345 218.7C633.086 211.598 624.545 204.255 615.987 197.179C588.368 174.404 558.908 158.915 528.427 151.142C488.996 141.088 448.11 142.947 403.434 156.827C380.431 163.974 357.417 173.637 336.878 184.774C321.037 193.361 307.634 204.204 293.444 215.682C292.439 216.495 291.431 217.312 290.418 218.128L289.868 218.573C286.419 221.366 282.852 224.254 279.236 227.152C270.572 234.127 261.031 241.341 249.996 246.852C237.185 253.25 224.271 256.44 210.51 256.606C186.355 256.898 161.737 250.306 137.93 243.93C136.262 243.483 134.601 243.038 132.947 242.599C117.248 238.417 105.796 235.938 95.8172 234.559C58.733 229.436 21.4101 227.825 -6.5821 230.14L-6.63892 229.498C21.3987 227.177 58.7766 228.79 95.91 233.921C105.917 235.304 117.394 237.788 133.121 241.977C134.775 242.417 136.436 242.862 138.107 243.31C161.867 249.673 186.439 256.249 210.5 255.962C240.385 255.602 261.431 240.646 278.812 226.655C282.428 223.757 285.995 220.87 289.444 218.078L289.993 217.633C291.007 216.815 292.014 216 293.02 215.188C307.234 203.689 320.66 192.828 336.554 184.211C357.131 173.054 380.188 163.374 403.231 156.215C424.412 149.635 444.306 145.836 464.049 144.6C486.073 143.223 507.788 145.215 528.594 150.52C559.171 158.317 588.719 173.85 616.415 196.688C624.979 203.768 633.522 211.113 641.782 218.216C647.73 223.33 653.878 228.617 659.966 233.746C689.762 258.849 722.372 284.546 758.93 302.436C771.13 308.412 783.952 313.984 797.038 318.997C813.614 325.301 829.194 330.317 844.671 334.332C868.436 340.496 898.011 348.168 927.235 340.095C942.57 335.858 954.761 327.813 964.507 315.499C982.607 292.625 989.381 260.008 995.357 231.229C997.759 219.665 1000.03 208.744 1002.82 199.776C1003.86 196.458 1004.89 193.03 1005.9 189.715C1009.83 176.747 1013.89 163.335 1019.45 150.476C1025.49 136.377 1032.77 124.071 1041.07 113.903C1050.44 102.43 1060.95 93.9307 1072.3 88.6401C1079.68 85.205 1087.28 82.8236 1095.54 81.3579C1106.67 79.3848 1119.02 79.451 1132.25 81.5547C1143.83 83.3973 1156.5 86.871 1169.9 91.8821C1192.2 100.225 1213.77 113.239 1232.28 129.518C1252.95 147.655 1270.97 170.2 1285.84 196.53C1299.27 220.316 1309.75 246.411 1316.97 274.087L1316.33 274.245C1301.03 215.601 1271.02 164.373 1231.83 129.996C1213.39 113.771 1191.89 100.799 1169.66 92.4834C1140.84 81.7055 1116.64 78.2722 1095.66 81.9924C1087.46 83.447 1079.91 85.8118 1072.59 89.2212C1045.57 101.809 1029.11 129.613 1020.06 150.724C1014.51 163.551 1010.46 176.944 1006.53 189.895C1005.53 193.211 1004.49 196.64 1003.46 199.961C1000.67 208.9 998.405 219.807 996.007 231.356C993.131 245.201 989.874 260.892 985.144 275.604C979.725 292.459 973.146 305.637 965.033 315.891C960.341 321.82 954.95 326.866 949.008 330.889C942.617 335.216 935.353 338.523 927.417 340.715C918.336 343.225 909.223 344.223 900.267 344.223Z" fill="#0B2326"/>
<path d="M912.106 347.479C905.484 347.479 898.546 346.854 891.217 345.605C876.783 343.146 862.967 338.685 850.776 334.752C835.411 329.792 819.367 323.623 803.094 316.416C790.072 310.616 777.314 304.279 765.18 297.578C730.352 278.367 700.346 252.822 667.52 223.852C664.603 221.277 661.641 218.651 658.777 216.11C647.497 206.108 635.834 195.766 623.952 185.994C595.875 162.952 565.494 148.356 533.653 142.611C493.489 135.364 449.987 141.617 404.362 161.197C380.95 171.245 357.956 183.912 337.869 197.831C322.744 208.311 310.293 220.667 297.112 233.749C295.772 235.078 294.428 236.411 293.075 237.75C289.709 241.086 286.084 244.666 282.396 248.25C274.662 255.792 265.236 264.385 253.976 270.919C241.37 278.234 228.423 281.921 214.399 282.188C188.725 282.679 162.591 274.426 137.317 266.445L136.355 266.141C123.98 262.235 110.889 258.289 99.0052 255.893C62.7809 248.591 25.028 243.521 -7.29614 241.617L-7.25258 240.93C25.1057 242.835 62.8927 247.908 99.1491 255.218C111.067 257.622 124.181 261.573 136.574 265.485L137.537 265.788C162.756 273.751 188.837 281.984 214.385 281.496C243.891 280.934 264.268 264.95 281.894 247.759C285.582 244.177 289.203 240.597 292.569 237.263C293.922 235.926 295.267 234.591 296.606 233.263C309.81 220.159 322.283 207.781 337.458 197.266C357.583 183.32 380.62 170.629 404.076 160.563C425.482 151.378 446.547 145.048 466.682 141.753C489.689 137.988 512.266 138.047 533.786 141.929C565.748 147.696 596.24 162.343 624.412 185.464C636.304 195.245 647.972 205.591 659.258 215.598C662.122 218.138 665.084 220.764 668.001 223.338C700.795 252.281 730.769 277.798 765.535 296.976C777.652 303.666 790.39 309.994 803.393 315.787C819.644 322.983 835.661 329.143 851.004 334.095C875.054 341.859 904.986 351.519 934.501 344.117C950.243 340.169 962.514 332.076 972.015 319.373C989.917 295.439 995.098 259.365 999.261 230.378C1000.88 219.087 1002.41 208.423 1004.49 199.743C1005.14 197.007 1005.8 194.188 1006.44 191.461C1009.76 177.294 1013.19 162.643 1018.33 148.476C1026.27 126.429 1041.36 96.9361 1068.13 81.6307C1075.53 77.4049 1083.15 74.2934 1091.45 72.1198C1113.16 66.3511 1139 68.2176 1168.27 77.6642C1191.41 85.1357 1213.66 97.6349 1232.61 113.812C1253.8 131.863 1271.97 154.625 1286.59 181.472C1293.29 193.785 1299.22 206.937 1304.21 220.562C1308.97 233.576 1312.9 247.09 1315.88 260.729L1315.19 260.873C1302.03 200.773 1272.54 148.73 1232.14 114.329C1213.26 98.2123 1191.1 85.761 1168.04 78.317C1138.92 68.9127 1113.21 67.0517 1091.64 72.7837C1083.4 74.9407 1075.83 78.0283 1068.49 82.2229C1041.9 97.4216 1026.9 126.764 1019 148.702C1013.87 162.832 1010.45 177.463 1007.13 191.611C1006.49 194.339 1005.84 197.16 1005.18 199.898C1003.11 208.548 1001.58 219.197 999.964 230.472C997.869 245.058 995.495 261.59 991.438 277.193C986.776 295.123 980.611 309.053 972.589 319.777C968.013 325.895 962.66 331.055 956.682 335.112C950.242 339.483 942.837 342.738 934.677 344.783C927.515 346.582 920.035 347.479 912.106 347.479Z" fill="#0B2326"/>
<path d="M923.016 350.919C915.079 350.919 906.709 349.92 897.768 347.918C883.282 344.676 869.344 339.295 857.047 334.547C841.566 328.57 825.532 321.4 809.39 313.234C796.453 306.659 783.781 299.565 771.726 292.145C738.555 271.742 710.105 245.445 679.983 217.608C678.493 216.23 677.002 214.851 675.508 213.472C661.5 200.541 647.017 187.168 631.919 174.81C603.353 151.476 572.051 137.772 538.884 134.08C497.224 129.44 452.277 140.034 405.29 165.564C381.787 178.334 358.195 194.43 338.859 210.886C324.259 223.312 312.549 237.293 300.151 252.097C298.683 253.849 297.212 255.607 295.728 257.369C292.766 260.894 289.241 265.074 285.551 269.35C278.717 277.288 269.405 287.377 257.953 294.966C245.548 303.188 232.573 307.379 218.285 307.774C206.541 308.059 193.581 306.299 178.663 302.391C165.854 299.037 153.464 294.653 139.754 289.688C127.239 285.1 114.031 280.361 102.181 277.231C67.0802 267.959 30.0036 259.84 -8.01636 253.095L-7.87998 252.373C30.1627 259.12 67.2602 267.246 102.38 276.521C114.262 279.66 127.489 284.407 140.019 288.998C163 297.323 191.6 307.687 218.264 307.038C248.749 306.192 268.341 288.197 284.97 268.875C288.658 264.603 292.181 260.425 295.141 256.902C296.624 255.14 298.096 253.382 299.562 251.631C311.98 236.804 323.711 222.799 338.359 210.333C357.734 193.843 381.372 177.716 404.92 164.922C452.049 139.315 497.152 128.694 538.971 133.35C555.006 135.135 570.756 139.282 585.78 145.674C601.902 152.532 617.589 162.147 632.407 174.249C647.523 186.62 662.015 200 676.03 212.94C677.525 214.321 679.017 215.699 680.508 217.076C710.601 244.89 739.027 271.161 772.133 291.525C784.171 298.934 796.824 306.02 809.742 312.583C825.862 320.736 841.871 327.897 857.33 333.865C881.624 343.243 911.861 354.915 941.759 348.146C957.954 344.479 970.306 336.336 979.516 323.254C997.258 298.267 1000.42 260.096 1002.96 229.426C1003.87 218.457 1004.73 208.097 1006.15 199.719C1006.44 197.99 1006.73 196.252 1007.03 194.505C1009.68 178.725 1012.43 162.407 1017.21 146.482C1024.02 123.576 1037.66 92.5165 1063.95 74.6274C1071.29 69.6366 1078.94 65.7969 1087.35 62.8877C1099.04 58.8071 1112.07 56.8891 1126.07 57.1834C1138.85 57.4518 1152.5 59.5611 1166.63 63.4504C1190.6 70.0466 1213.53 82.0309 1232.93 98.1068C1254.65 116.069 1272.95 139.052 1287.32 166.414C1293.92 178.968 1299.63 192.39 1304.3 206.307C1308.77 219.636 1312.3 233.454 1314.79 247.376L1314.04 247.501C1303.19 186.833 1273.45 132.585 1232.44 98.6659C1213.12 82.6598 1190.29 70.7252 1166.42 64.1547C1136.98 56.0524 1109.73 55.8538 1087.6 63.5773C1079.26 66.4644 1071.66 70.2747 1064.39 75.2269C1038.28 92.9928 1024.71 123.892 1017.93 146.684C1013.17 162.567 1010.43 178.861 1007.77 194.621C1007.48 196.368 1007.19 198.108 1006.89 199.836C1005.48 208.183 1004.62 218.531 1003.71 229.483C1001.16 260.241 997.995 298.522 980.139 323.67C975.699 329.975 970.389 335.253 964.36 339.352C957.873 343.762 950.326 346.961 941.931 348.863C935.87 350.231 929.593 350.919 923.016 350.919Z" fill="#0B2326"/>
<path d="M933.268 354.499C924.225 354.499 914.644 353.079 904.319 350.229C889.711 346.196 875.687 339.898 863.316 334.342C847.681 327.321 831.655 319.147 815.681 310.052C802.837 302.714 790.25 294.86 778.267 286.712C748.762 266.653 723.544 242.08 696.846 216.062C692.482 211.809 687.968 207.412 683.49 203.089C667.749 187.899 654.308 175.374 639.88 163.625C610.805 139.982 578.585 127.17 544.113 125.545C500.796 123.502 454.399 138.434 406.211 169.926C382.272 185.571 358.701 204.751 339.84 223.935C325.632 238.387 314.525 254.119 302.766 270.774C301.309 272.837 299.847 274.908 298.375 276.981C295.753 280.679 292.283 285.552 288.701 290.438C273.628 311.048 253.934 332.268 222.166 333.353C221.176 333.384 220.181 333.399 219.189 333.399C194.383 333.399 169.058 323.868 143.149 313.226L141.531 312.556C128.698 307.238 116.575 302.216 105.354 298.56C63.0668 284.783 22.1696 273.154 -8.73584 264.562L-8.51421 263.81C22.3988 272.405 63.3074 284.037 105.61 297.819C116.861 301.484 128.997 306.514 141.848 311.837L143.463 312.507C170.321 323.538 196.55 333.379 222.138 332.573C253.553 331.499 273.082 310.444 288.044 289.987C291.624 285.105 295.09 280.235 297.712 276.539C299.184 274.465 300.644 272.396 302.101 270.333C313.879 253.652 325.003 237.894 339.257 223.396C358.155 204.172 381.774 184.953 405.76 169.276C428.022 154.727 450.292 143.555 471.95 136.069C496.8 127.479 521.093 123.677 544.15 124.763C578.801 126.396 611.184 139.271 640.396 163.024C654.844 174.791 668.299 187.329 684.055 202.532C688.534 206.855 693.048 211.254 697.414 215.507C724.086 241.498 749.279 266.048 778.728 286.067C790.693 294.206 803.261 302.047 816.086 309.373C832.037 318.458 848.039 326.619 863.651 333.629C888.158 344.635 918.658 358.331 949.014 352.165C965.607 348.794 978.037 340.604 987.011 327.126C1004.53 301.001 1005.58 260.682 1006.43 228.286C1006.71 217.716 1006.97 207.73 1007.8 199.685L1007.82 199.501C1009.7 181.485 1011.63 162.857 1016.08 144.477C1019.92 128.445 1025.28 114.031 1032 101.633C1039.58 87.6556 1048.92 76.2101 1059.77 67.6131C1067.03 61.861 1074.71 57.2912 1083.24 53.6446C1106.31 43.7347 1134.57 42.2047 1164.98 49.2239C1177.22 52.0485 1189.29 56.3276 1200.87 61.94C1212.51 67.5856 1223.4 74.4687 1233.25 82.3944C1255.5 100.271 1273.94 123.471 1288.06 151.351C1300.76 176.41 1309.62 204.996 1313.69 234.016L1312.89 234.121C1304.18 172.009 1274.96 116.926 1232.74 82.9958C1212.99 67.1038 1189.5 55.6877 1164.8 49.9889C1134.56 43.0101 1106.48 44.5236 1083.57 54.3655C1075.1 57.9845 1067.48 62.5175 1060.28 68.2237C1040.02 84.2757 1025.01 110.707 1016.86 144.659C1012.43 162.991 1010.5 181.594 1008.63 199.584L1008.61 199.768C1007.77 207.784 1007.51 217.754 1007.24 228.31C1006.39 260.805 1005.33 301.245 987.686 327.555C983.359 334.054 978.088 339.445 972.023 343.579C965.482 348.037 957.797 351.183 949.179 352.936C944.046 353.976 938.755 354.499 933.268 354.499Z" fill="#0B2326"/>
<path d="M222.755 359.003C211.663 359.003 199.584 356.905 185.951 352.62C172.406 348.363 159.01 342.486 146.551 336.771C144.295 335.73 142.056 334.691 139.832 333.659C128.762 328.523 118.306 323.672 108.534 319.893C69.5692 304.83 32.4282 291.292 -3.49111 278.203L-9.44263 276.033L-9.14336 275.259L-3.19184 277.429C32.7294 290.522 69.8761 304.06 108.849 319.126C118.647 322.914 129.117 327.771 140.199 332.914C142.421 333.946 144.66 334.985 146.914 336.024C172.491 347.756 199.665 359.127 226.021 358.113C258.419 356.804 277.834 332.302 291.128 311.105C294.533 305.684 297.814 300.281 300.292 296.18C301.659 293.92 303.017 291.662 304.372 289.409C315.604 270.735 326.213 253.096 340.166 236.465C358.583 214.515 382.179 192.202 406.61 173.638C429.276 156.414 452.148 142.806 474.594 133.192C500.34 122.164 525.487 116.441 549.336 116.182C585.223 115.664 618.555 127.65 648.392 151.804C664.932 165.21 679.762 179.712 692.089 192.13C698.797 198.888 705.504 205.815 711.991 212.514C734.954 236.231 758.7 260.753 785.33 280.615C797.226 289.49 809.712 298.089 822.439 306.171C838.189 316.151 854.184 325.312 869.981 333.4C894.674 346.041 925.403 361.773 956.276 356.19C973.269 353.117 985.776 344.879 994.514 331.004C1011.8 303.694 1010.63 261.167 1009.69 226.996C1009.42 216.891 1009.15 207.345 1009.47 199.66C1010.18 182.336 1011.25 162.201 1014.96 142.481C1018.08 125.77 1022.8 110.652 1028.98 97.5483C1035.97 82.7247 1044.92 70.2972 1055.59 60.6098C1062.66 54.1901 1070.59 48.7413 1079.15 44.4125C1091.36 38.2153 1105.06 34.3186 1119.87 32.8328C1133.74 31.4407 1148.37 32.1726 1163.34 35.0064C1175.97 37.397 1188.42 41.3286 1200.34 46.6946C1212.33 52.0937 1223.52 58.8205 1233.57 66.6874C1245.17 75.746 1255.83 86.443 1265.26 98.4825C1274.2 109.889 1282.12 122.611 1288.8 136.293C1301.31 161.889 1309.54 191.065 1312.6 220.663L1311.75 220.745C1305.18 157.187 1276.49 101.27 1233.04 67.3329C1213.14 51.7719 1188.33 40.5802 1163.18 35.8192C1132.08 29.9328 1103.16 33.1582 1079.54 45.1462C1071.05 49.4401 1063.19 54.8465 1056.18 61.2148C1036.07 79.468 1022.48 106.859 1015.8 142.63C1012.1 162.297 1011.03 182.396 1010.32 199.693C1010.01 207.351 1010.27 216.882 1010.55 226.974C1011.01 243.831 1011.53 262.94 1009.78 281.412C1007.74 302.846 1002.98 319.209 995.241 331.436C991.029 338.126 985.797 343.634 979.694 347.804C973.102 352.31 965.275 355.405 956.433 357.003C951.972 357.81 947.515 358.176 943.085 358.176C916.553 358.176 890.843 345.013 869.585 334.13C853.765 326.03 837.746 316.855 821.975 306.861C809.229 298.767 796.726 290.156 784.813 281.268C758.128 261.365 734.358 236.818 711.372 213.079C704.886 206.382 698.181 199.456 691.477 192.702C679.167 180.298 664.358 165.817 647.849 152.437C618.173 128.411 585.036 116.495 549.35 117.006C493.307 117.617 441.08 148.49 407.137 174.285C382.755 192.812 359.206 215.078 340.829 236.983C326.918 253.565 316.324 271.176 305.108 289.821C303.754 292.074 302.394 294.332 301.027 296.594C298.547 300.696 295.264 306.103 291.857 311.53C286.277 320.428 277.516 333.382 265.912 343.091C260.277 347.806 254.28 351.512 248.088 354.106C241.184 356.999 233.77 358.625 226.057 358.935C224.964 358.981 223.863 359.003 222.755 359.003Z" fill="#0B2326"/>
<path d="M226.317 384.603C215.211 384.603 203.157 382.343 189.596 377.731C175.556 372.957 161.676 366.245 149.951 360.308C146.348 358.48 142.753 356.626 139.275 354.833C129.554 349.822 120.371 345.087 111.713 341.221C80.6202 327.337 49.7299 313.783 19.8549 300.673C9.973 296.337 -0.244205 291.853 -10.147 287.499L-9.77572 286.703C0.127048 291.057 10.3443 295.541 20.2262 299.877C50.1012 312.986 80.9952 326.543 112.09 340.429C120.771 344.305 129.965 349.044 139.698 354.063C143.174 355.855 146.769 357.707 150.368 359.535C174.685 371.845 202.891 384.876 229.9 383.649C263.062 382.108 281.687 355.353 294.212 332.218C297.422 326.291 300.527 320.34 302.872 315.818C304.077 313.498 305.274 311.179 306.469 308.865C317.213 288.058 327.36 268.405 341.077 249.532C358.919 224.986 382.496 199.582 407.461 177.998C442.228 148.07 495.964 111.563 554.521 107.604C591.761 105.019 626.036 116.115 656.39 140.587C670.028 151.588 683.515 164.276 700.123 181.733C708.516 190.554 716.845 199.698 724.899 208.537C745.854 231.537 767.52 255.32 791.934 275.171C803.761 284.79 816.162 294.145 828.793 302.975C844.086 313.658 860.075 323.82 876.312 333.18C901.253 347.47 932.292 365.258 963.537 360.223C980.668 357.52 993.613 348.996 1002.02 334.892C1019.06 306.346 1015.41 259.645 1012.73 225.545C1011.98 215.976 1011.27 206.937 1011.14 199.646C1010.83 183.441 1010.85 162.075 1013.84 140.495C1018.99 103.101 1031.64 73.869 1051.42 53.6169C1058.35 46.4818 1066.3 40.2828 1075.05 35.1908C1087.49 27.9381 1101.53 23.0594 1116.77 20.6927C1131.14 18.4639 1146.25 18.4989 1161.7 20.7975C1174.74 22.7799 1187.56 26.3732 1199.81 31.4743C1212.18 36.627 1223.65 43.192 1233.9 50.9872C1245.76 59.9943 1256.59 70.7281 1266.09 82.8926C1275.1 94.4208 1282.99 107.323 1289.55 121.243C1301.86 147.378 1309.45 177.143 1311.51 207.32L1310.61 207.377C1306.19 142.367 1278.02 85.616 1233.35 51.6768C1213.09 36.2795 1187.6 25.6192 1161.57 21.6618C1129.48 16.8898 1099.72 21.8273 1075.52 35.9411C1066.84 40.9908 1058.95 47.1402 1052.08 54.2182C1032.43 74.336 1019.86 103.402 1014.73 140.613C1011.75 162.134 1011.73 183.458 1012.04 199.631C1012.18 206.897 1012.88 215.924 1013.63 225.481C1015.01 243.107 1016.58 263.087 1015.68 282.593C1014.64 305.305 1010.43 322.556 1002.8 335.331C998.691 342.222 993.501 347.849 987.366 352.056C980.715 356.619 972.748 359.657 963.687 361.087C949.632 363.351 934.505 361.317 917.44 354.868C902.607 349.261 888.395 341.118 875.857 333.935C859.596 324.562 843.586 314.386 828.27 303.689C815.62 294.845 803.202 285.478 791.358 275.846C766.893 255.954 745.202 232.145 724.226 209.122C716.176 200.284 707.849 191.147 699.464 182.333C682.884 164.907 669.422 152.242 655.816 141.267C625.642 116.935 591.585 105.905 554.582 108.474C496.277 112.418 442.719 148.813 408.056 178.651C383.14 200.19 359.612 225.542 341.809 250.036C328.129 268.856 317.997 288.481 307.27 309.257C306.075 311.572 304.878 313.891 303.673 316.212C301.326 320.738 298.22 326.694 295.005 332.626C282.371 355.968 263.558 382.961 229.94 384.523C228.745 384.576 227.535 384.603 226.317 384.603Z" fill="#0B2326"/>
<path d="M229.95 410.207C199.605 410.207 167.766 392.113 139.541 376.072C130.867 371.144 122.675 366.488 114.89 362.551L-10.8516 298.966L-10.414 298.152L115.327 361.736C123.133 365.682 131.335 370.344 140.02 375.28C169.336 391.941 202.566 410.824 233.78 409.188C267.672 407.413 285.527 378.406 297.295 353.336C301.144 345.136 304.861 336.793 308.456 328.724C318.289 306.657 328.455 283.837 341.985 262.6C352.729 245.737 366.075 228.052 380.581 211.459C396.493 193.255 413.532 176.554 431.218 161.821C450.718 145.578 470.546 132.14 490.149 121.885C511.832 110.542 533.193 103.137 553.642 99.8728C594.608 93.3354 631.866 103.256 664.38 129.364C691.4 151.058 714.365 177.884 736.574 203.827C755.906 226.409 775.896 249.758 798.531 269.718C824.676 292.771 852.974 314.045 882.638 332.948C907.632 348.875 938.738 368.698 970.797 364.243C997.873 360.48 1013.53 342.893 1018.65 310.472C1023.01 282.896 1018.87 250.183 1015.53 223.899C1014.4 214.942 1013.33 206.481 1012.8 199.62C1009.89 161.797 1011.75 130.574 1018.46 104.169C1022.65 87.6936 1028.83 73.0079 1036.84 60.5198C1045.77 46.5697 1057.25 34.9403 1070.95 25.9553C1082.79 18.1822 1096.15 12.5367 1110.64 9.17509C1124.43 5.97536 1138.95 4.90327 1153.79 5.98824C1182.99 8.12139 1211.56 18.5224 1234.22 35.2732C1246.33 44.2269 1257.33 54.9993 1266.91 67.2889C1275.99 78.9367 1283.85 92.0206 1290.28 106.18C1302.4 132.854 1309.36 163.209 1310.41 193.962L1309.46 193.993C1307.23 128.505 1278.88 69.4441 1233.64 36.0069C1185.6 0.497196 1117.4 -3.41052 1071.47 26.7185C1025.98 56.5643 1007.1 113.098 1013.74 199.552C1014.26 206.391 1015.34 214.841 1016.47 223.787C1019.81 250.128 1023.97 282.91 1019.59 310.612C1017.2 325.7 1012.4 337.826 1005.33 346.655C1001.36 351.618 996.562 355.675 991.082 358.709C985.25 361.938 978.471 364.106 970.93 365.155C967.848 365.583 964.713 365.798 961.525 365.798C949.908 365.798 937.534 362.946 923.975 357.168C908.7 350.658 893.96 341.265 882.116 333.718C852.411 314.788 824.074 293.486 797.891 270.4C775.204 250.398 755.194 227.022 735.841 204.416C713.661 178.505 690.724 151.712 663.772 130.074C631.476 104.145 594.473 94.288 553.79 100.781C471.495 113.915 386.723 194.122 342.784 263.085C329.29 284.264 319.137 307.052 309.318 329.09C305.721 337.162 302.002 345.511 298.15 353.718C290.336 370.363 282.619 382.281 273.864 391.221C268.4 396.801 262.471 401.199 256.243 404.294C249.318 407.735 241.775 409.692 233.823 410.109C232.539 410.173 231.245 410.207 229.95 410.207Z" fill="#0B2326"/>
</g>
</svg>
